<?xml version="1.0" encoding="utf-8"?>
<!-- Generator: Adobe Illustrator 26.5.0, SVG Export Plug-In . SVG Version: 6.00 Build 0)  -->
<svg version="1.1" id="Layer_1" xmlns="http://www.w3.org/2000/svg" xmlns:xlink="http://www.w3.org/1999/xlink" x="0px" y="0px"
	 viewBox="0 0 191 54" style="enable-background:new 0 0 191 54;" xml:space="preserve">
<style type="text/css">
	.st0{clip-path:url(#SVGID_00000157267897197162211260000012575921387210247054_);}
	.st1{fill:url(#SVGID_00000079479381693194929100000013003384650487958716_);}
	.st2{fill:#B6C8D7;}
</style>
<g>
	<defs>
		<rect id="SVGID_1_" x="0.1" y="0" width="190" height="54"/>
	</defs>
	<clipPath id="SVGID_00000037666867480206660710000010064386513864518045_">
		<use xlink:href="#SVGID_1_"  style="overflow:visible;"/>
	</clipPath>
	<g style="clip-path:url(#SVGID_00000037666867480206660710000010064386513864518045_);">
		
			<linearGradient id="SVGID_00000174564129989934815160000008499620020308339850_" gradientUnits="userSpaceOnUse" x1="162.9818" y1="87.6041" x2="36.4926" y2="-17.2945" gradientTransform="matrix(1 0 0 -1 0 55.2756)">
			<stop  offset="0" style="stop-color:#92111D"/>
			<stop  offset="0.59" style="stop-color:#DF4846"/>
			<stop  offset="0.78" style="stop-color:#DD4645"/>
			<stop  offset="0.85" style="stop-color:#D64141"/>
			<stop  offset="0.9" style="stop-color:#CA393B"/>
			<stop  offset="0.94" style="stop-color:#B92D32"/>
			<stop  offset="0.98" style="stop-color:#A31D26"/>
			<stop  offset="1" style="stop-color:#92111D"/>
		</linearGradient>
		<path style="fill:url(#SVGID_00000174564129989934815160000008499620020308339850_);" d="M53.1,40.4c0.2,0.2,0.4,0.3,0.6,0.4
			c-1.3,2.2-2.8,4.2-4.6,6c-3.1-2.2-6.3-4.3-9.5-6.2c-10-5.7-20.8-9.9-32-12.4c0.1,0.9,0.3,1.9,0.5,2.8c1.6,0.3,3.2,0.8,4.8,1.2
			c10.4,2.9,20.3,7.3,29.4,13c-1.3,1-2.7,1.7-4.2,2.4c-1.3,0.6-2.6,1-4,1.4c-0.2,0.1-0.4-0.1-0.6-0.2C27,45.2,20,42.2,12.8,40.1
			c2.1,2.7,4.8,5,7.8,6.6c2.5,1.3,5.3,2.2,8.1,2.5c0.1,0,0.3,0.1,0.3,0.3c0,0.2-0.1,0.3-0.2,0.4c-3.7,0.1-7.5-0.8-10.8-2.5
			c-3.3-1.7-6.2-4.1-8.4-7.2c-0.9-1.3-1.7-2.6-2.4-4.1c9.5,2.1,18.6,5.7,27.2,10.4c0.9-0.3,1.7-0.6,2.5-0.9c0.2-0.1,0.4-0.1,0.6-0.3
			c-1.4-0.8-2.8-1.6-4.2-2.3c-8.5-4.5-17.7-7.7-27.1-9.8C5.3,30.6,5,27.9,5,25.3c15.6,2.9,30.7,9.2,43.8,18.3
			c0.6-0.7,1.1-1.4,1.6-2.1c-6.2-4.2-12.7-8-19.4-11.2C21.3,25.7,11,22.2,0.4,20c-0.1,0-0.2-0.1-0.3-0.2c0-0.1,0-0.2,0-0.2
			c0.1-0.2,0.3-0.3,0.6-0.2c11.9,1.7,23.6,5.2,34.5,10.4C41.5,32.8,47.5,36.3,53.1,40.4z M50.2,35.4c1.8-4.1,2.3-8.6,1.7-13
			c-0.5-3.7-2-7.2-4.1-10.3c-2.4-3.4-5.6-6.1-9.4-7.8c-2.6-1.2-5.4-1.9-8.3-2.1c-0.1-0.1-0.2-0.1-0.3-0.1c-0.7,0-1.5,0-2.2,0
			c-0.1,0-0.3,0-0.3,0.1c-3.3,0.2-6.5,1.1-9.4,2.7c-2.7,1.4-5.1,3.4-7.1,5.8c-1.8,2.1-3.2,4.6-4.1,7.2c8,1.5,15.9,3.9,23.5,7
			C37.1,27.7,43.8,31.2,50.2,35.4L50.2,35.4z M148.5,32l5.8-0.2c0.2-0.1,0.4-0.3,0.4-0.5V8.4c0-0.4-0.3-0.6-0.7-0.5l-5.8,0
			c-0.2,0.1-0.4,0.3-0.4,0.5v23C147.8,31.8,148.1,32.1,148.5,32L148.5,32z M61.6,32l5.8-0.2c0.2-0.1,0.4-0.3,0.4-0.5V8.4
			c0-0.4-0.3-0.6-0.7-0.5l-5.8,0c-0.3,0.1-0.4,0.3-0.4,0.5v23C60.9,31.8,61.3,32.1,61.6,32L61.6,32z M112.6,8.2h3.5
			c0.3,0,0.5-0.2,0.5-0.6V4.6c0-0.3-0.2-0.6-0.5-0.6h-3.5c-0.3,0-0.5,0.2-0.5,0.6v3.1C112.1,7.9,112.3,8.2,112.6,8.2z M70.7,31.8
			h7.2c1.7,0,3.4-0.5,4.9-1.4c1.6-0.9,2.8-2.2,3.7-3.7c0.9-1.6,1.4-3.2,1.4-5V12c0-0.3-0.2-0.6-0.5-0.6h-14c-0.3,0-0.5,0.2-0.5,0.6
			v1.3c0,0.3,0.2,0.6,0.5,0.6h7.2c0.3,0,0.5,0.2,0.5,0.6v11.8c0,2.1-1.1,3.1-3.3,3.1h-7c-0.3,0-0.5,0.2-0.6,0.5l-0.1,1.3
			C70.1,31.5,70.4,31.8,70.7,31.8L70.7,31.8z M176.3,16.9v13.8c0,1.6-0.5,2.8-1.5,3.7c-1,0.9-2.3,1.5-3.9,1.9L160,38.6
			c-0.3,0.1-0.7-0.2-0.7-0.5v-1.5c0-0.3,0.2-0.5,0.4-0.5l8.4-1.8c0.5-0.1,0.8-0.2,1-0.4c0.2-0.2,0.3-0.4,0.3-0.6v-1.5h-11.3
			c-0.3,0-0.5-0.2-0.5-0.6V22c0-1.4,0.4-3.6,1.1-4.8c1-2,2.5-3.5,4.5-4.6c1.2-0.6,3.4-1.1,4.8-1.1h3
			C173.9,11.5,176.3,13.9,176.3,16.9L176.3,16.9z M169.4,16.4h-1.6c-1,0-2,0.2-3,0.6c-0.2,0.1-0.4,0.3-0.4,0.5v10
			c0,0.3,0.2,0.6,0.5,0.6h3.9c0.3,0,0.5-0.2,0.5-0.6L169.4,16.4L169.4,16.4z M186.5,7.7l-5.8,0c-0.2,0.1-0.4,0.3-0.4,0.5v23.2
			c0,0.4,0.3,0.6,0.7,0.5l5.8-0.2c0.2-0.1,0.4-0.3,0.4-0.5v-23C187.2,7.9,186.8,7.6,186.5,7.7z M189.5,0h-9.1
			c-2.1,0-3.4,1.3-3.9,3.8l-0.9,4h1.4c0.3,0,0.5-0.2,0.5-0.4l0.3-1.7c0.1-0.3,0.2-0.6,0.4-0.8c0.2-0.2,0.5-0.2,0.9-0.2h9.5
			c0.3,0,0.5-0.2,0.5-0.4l0.8-3.6C190.2,0.3,189.9,0,189.5,0L189.5,0z M154.3,35.8l-18.6-2.3c-0.5-0.1-0.8-0.2-1-0.4
			c-0.2-0.2-0.3-0.4-0.3-0.6V31h0v-7.6c0-0.2,0.1-0.4,0.4-0.5c1-0.4,2-0.6,2.9-0.6h0.7v3.7c0,0.4,0.3,0.6,0.7,0.5l5.6-1.4
			c0.2-0.1,0.4-0.3,0.4-0.5v-4.1c0-0.3-0.2-0.6-0.5-0.6h-6.4c-1.8,0-4.5,0.7-6,1.6c-1.4,0.9-2.5,2-3.3,3.5c-0.9,1.6-1.3,3.9-1.3,5.7
			c0,1.6,0.5,2.8,1.5,3.7c1,0.9,2.3,1.5,3.9,1.9l21,2.2c0.3,0.1,0.7-0.2,0.7-0.5l0.1-1.6C154.7,36.1,154.5,35.9,154.3,35.8
			L154.3,35.8z M124.2,16.1v9c0,1.2-0.3,2.3-1,3.4c-0.7,1-1.6,1.9-2.7,2.5c-1.1,0.6-2.3,0.9-3.5,0.9h-14.9c-0.9,0-1.7-0.1-2.4-0.4
			c-0.7-0.3-1.4-0.7-1.9-1.3v0.3c0,1.8-0.4,3.3-1.1,4.4C96,35.9,95,36.7,93.7,37L87,38.6c-0.3,0.1-0.7-0.2-0.7-0.5v-1.4
			c0-0.3,0.2-0.5,0.4-0.5l2.8-0.7c0.6-0.1,0.9-0.4,1.2-0.7c0.2-0.4,0.4-0.9,0.4-1.7V12.2c0-0.3,0.2-0.5,0.4-0.5l5.8-0.2
			c0.3-0.1,0.7,0.2,0.7,0.5v12.7c0,1.4,0.4,2.5,1.3,3.4c0.8,0.9,1.9,1.3,3.2,1.3h11.9c1,0,1.7-0.2,2.2-0.5c0.5-0.3,0.8-0.8,0.8-1.6
			v-0.6h-11.1c-0.3,0-0.5-0.2-0.5-0.6v-5.4c0-1.8,0.5-3.5,1.4-5.1c0.8-1.4,2-2.6,3.4-3.5c1.5-1,4.3-1.6,6-1.6h2.3
			C121.8,10.6,124.2,13,124.2,16.1L124.2,16.1z M117.4,15.5H116c-0.9,0-1.9,0.2-3,0.6c-0.2,0.1-0.4,0.3-0.4,0.5v5.9
			c0,0.3,0.2,0.6,0.5,0.6h3.6c0.3,0,0.5-0.2,0.5-0.6V15.5z"/>
		<g>
			<path class="st2" d="M111.4,35.4H98c0,0.1-0.1,0.1-0.1,0.2C97,37,95.7,37.9,94,38.3l-6.7,1.6c-0.1,0-0.3,0.1-0.4,0.1
				c-1,0-1.9-0.9-1.9-1.9v-1.4c0-0.5,0.2-0.9,0.5-1.3H60v12.8c0,3.2,2.6,5.8,5.8,5.8h45.6c3.8,0,6.8-3.1,6.8-6.9v-4.8
				C118.3,38.5,115.2,35.4,111.4,35.4z M73.8,52.2c0,0.2-0.1,0.3-0.3,0.3h-6.2c-0.2,0-0.3-0.1-0.3-0.3v-1.1c0-0.2,0.1-0.3,0.3-0.3
				h6.2c0.2,0,0.3,0.1,0.3,0.3V52.2z M75.3,44.2c0,0.9-0.2,1.8-0.7,2.6c-0.5,0.8-1.1,1.4-1.9,1.9c-0.8,0.5-1.7,0.7-2.6,0.7h-4.4
				c-0.7,0-1.3-0.1-1.8-0.4c-0.5-0.3-0.9-0.7-1.2-1.2c-0.3-0.5-0.4-1.2-0.4-1.8v-8.2c0-0.1,0.1-0.2,0.2-0.3l3-0.1
				c0.2,0,0.4,0.1,0.4,0.3v9.3c0,0.4,0.1,0.8,0.4,1c0.2,0.2,0.6,0.3,1.1,0.3H70c0.6,0,1-0.1,1.3-0.4c0.3-0.2,0.4-0.6,0.4-1.2v-5.2
				c0-0.1,0.1-0.2,0.2-0.3l3-0.1v0c0.2,0,0.4,0.1,0.4,0.3V44.2z M112.2,49.4h-2c-0.9,0-1.7-0.2-2.4-0.6c-0.6-0.3-1.1-0.8-1.6-1.3
				c-0.1-0.2-0.3-0.1-0.4,0.1c-0.3,0.5-0.6,0.9-1.1,1.2c-0.6,0.4-1.2,0.6-2,0.6H86.9c-0.7,0-1.4-0.2-2-0.6c-0.5-0.3-0.8-0.7-1.1-1.2
				c-0.1-0.2-0.3-0.2-0.5,0c-0.6,0.7-1.3,1.2-2.1,1.5c-0.6,0.3-1.3,0.3-2,0.3H76c-0.2,0-0.3-0.1-0.3-0.3v-1h3.7c0.6,0,1-0.1,1.3-0.4
				s0.4-0.7,0.4-1.2v-4c0-0.2-0.1-0.3-0.3-0.3h-3.7c-0.2,0-0.3-0.1-0.3-0.3v-0.7c0-0.2,0.1-0.3,0.3-0.3h7.3c0.2,0,0.3,0.1,0.3,0.3
				v4.4c0,0.4,0.1,0.9,0.3,1.2c0.2,0.4,0.5,0.7,0.9,0.9c0.4,0.2,0.8,0.3,1.2,0.3h15.5c0.4,0,0.9-0.1,1.2-0.3
				c0.4-0.2,0.7-0.5,0.9-0.9c0.2-0.4,0.3-0.8,0.3-1.2v-4.4c0-0.2,0.1-0.3,0.3-0.3h4.6c1,0,2,0.2,2.9,0.7c0.8,0.5,1.4,1.1,1.9,1.9
				l0,0c0.5,0.8,0.7,1.7,0.7,2.6C115.3,48,113.9,49.4,112.2,49.4z"/>
			<path class="st2" d="M111.6,43c-0.5-0.2-1-0.3-1.5-0.3h-1.3c-0.2,0-0.3,0.1-0.3,0.3v3.9c0,0.1,0.1,0.2,0.2,0.3
				c0.5,0.2,1,0.4,1.5,0.4h1.2c0.2,0,0.3-0.1,0.3-0.3v-3.9C111.8,43.1,111.7,43,111.6,43z"/>
		</g>
	</g>
</g>
</svg>
