<?xml version="1.0" encoding="utf-8"?>
<!-- Generator: Adobe Illustrator 26.0.1, SVG Export Plug-In . SVG Version: 6.00 Build 0)  -->
<svg version="1.1" id="Layer_1" xmlns="http://www.w3.org/2000/svg" xmlns:xlink="http://www.w3.org/1999/xlink" x="0px" y="0px"
	 viewBox="0 0 500 500" style="enable-background:new 0 0 500 500;" xml:space="preserve">
<style type="text/css">
	.st0{fill:#A1C2FF;}
	.st1{fill:#8BA5EF;}
	.st2{fill:#E7E8FA;}
	
		.st3{fill:none;stroke:#C2D6FF;stroke-width:2;stroke-linecap:round;stroke-linejoin:round;stroke-miterlimit:9.9999;stroke-dasharray:0,7.9999;}
	.st4{fill:none;stroke:#FFFFFF;stroke-miterlimit:10;}
	.st5{fill:url(#SVGID_1_);}
	.st6{fill:url(#SVGID_00000129888158129358191900000016539905055871130532_);}
	.st7{fill:url(#SVGID_00000025406373593494999710000001447367855360318083_);}
	.st8{fill:url(#SVGID_00000119088322506140279450000008999929427368163738_);}
	.st9{fill:url(#SVGID_00000018933074991460655180000005093290280363640965_);}
	.st10{fill:url(#SVGID_00000121985582586565946360000007285274157781446843_);}
	.st11{fill:#C2D6FF;}
	.st12{fill:#A6C7FF;}
	.st13{fill:url(#SVGID_00000093146981754476267210000017592081005798255772_);}
	.st14{fill:#D4E5FF;}
	
		.st15{fill:none;stroke:#8182EE;stroke-width:2;stroke-linecap:round;stroke-linejoin:round;stroke-miterlimit:10;stroke-dasharray:0,8;}
	.st16{fill:url(#SVGID_00000011731826300026255610000013590629441185289151_);}
	.st17{fill:#FFFFFF;}
	.st18{fill:url(#SVGID_00000059998677510125060930000004701805233562958980_);}
	.st19{fill:url(#SVGID_00000116218974932121019120000015757361195730628758_);}
	
		.st20{fill:none;stroke:url(#SVGID_00000037678661094844147170000004871790719595771015_);stroke-width:2;stroke-linecap:round;stroke-linejoin:round;stroke-miterlimit:10;}
	
		.st21{fill:none;stroke:url(#SVGID_00000150796336290925039400000001710175394425779892_);stroke-width:2;stroke-linecap:round;stroke-linejoin:round;stroke-miterlimit:10;}
	
		.st22{fill:none;stroke:url(#SVGID_00000098939409071973383670000005988174126250071215_);stroke-linecap:round;stroke-linejoin:round;stroke-miterlimit:10;}
	.st23{fill:url(#SVGID_00000111901359753477071460000018173630045709663890_);}
	.st24{fill:url(#SVGID_00000067221141062391053070000011629512971952540602_);}
	.st25{fill:url(#SVGID_00000145046791622343886820000015481291827039564446_);}
	.st26{fill:url(#SVGID_00000047052577519854224600000012543801423911391395_);}
	.st27{fill:url(#SVGID_00000002367042457369096550000001168848498860312756_);}
	.st28{fill:url(#SVGID_00000058556017072095863880000000834069556901660333_);}
	.st29{fill:url(#SVGID_00000155148484209220450100000009090616015656641159_);}
	.st30{opacity:0.54;fill:#FFFFFF;enable-background:new    ;}
	.st31{fill:url(#SVGID_00000091000683464102710370000006371196973824091280_);}
	.st32{fill:url(#SVGID_00000026151404004131489750000009907949235926130821_);}
	.st33{fill:#FF6E77;}
	.st34{fill:url(#SVGID_00000119812000007917935170000015086506050399205540_);}
	.st35{fill:url(#SVGID_00000101816966850386969460000004863456571785019323_);}
	.st36{fill:url(#SVGID_00000029004968990576728480000007068489489304107181_);}
	.st37{fill:url(#SVGID_00000082350971971278840100000015414205456446448794_);}
	.st38{fill:url(#SVGID_00000155853392030686096500000004409361432778977976_);}
	.st39{fill:url(#SVGID_00000090993972966859302500000001256377898820051338_);}
	.st40{fill:#FF957A;}
	.st41{fill:url(#SVGID_00000025425464759170797000000002978095210260092063_);}
	.st42{fill:url(#SVGID_00000136397117495085142120000012926755782897004720_);}
	.st43{fill:url(#SVGID_00000148636010912084903470000017249294195721266052_);}
	.st44{fill:url(#SVGID_00000077291617114535777160000004390944759347643032_);}
	.st45{clip-path:url(#SVGID_00000068651373868338110740000006008340593769549699_);}
	.st46{fill:#A1CAFF;}
	.st47{fill:#0D1B4A;}
	.st48{fill:url(#SVGID_00000072239560716898676750000017308565920108546743_);}
	.st49{fill:url(#SVGID_00000170264908645414660330000000064502269164314784_);}
	.st50{fill:url(#SVGID_00000128449887922567523220000006899736816671629440_);}
	.st51{fill:#FF6746;}
	.st52{fill:url(#SVGID_00000060026311782857485330000018200990769392934030_);}
	.st53{fill:url(#SVGID_00000016785844431153456940000010387987595537294998_);}
	.st54{fill:url(#SVGID_00000069373173859865102330000007794033238101360018_);}
	.st55{fill:url(#SVGID_00000158018458828775628450000012132978214395649689_);}
	.st56{fill:#254DA1;}
	.st57{fill:none;stroke:#218498;stroke-width:0.25;stroke-miterlimit:10;}
	.st58{fill:url(#SVGID_00000008829664194291120240000015723818176275774605_);}
	.st59{fill:none;stroke:#A6D0F4;stroke-width:0.25;stroke-miterlimit:10;}
	.st60{fill:url(#SVGID_00000090266433099097920130000005247474591545781685_);}
	.st61{fill:url(#SVGID_00000064315055553029421130000017038873278375306933_);}
	.st62{fill:url(#SVGID_00000031199501757684886110000011662998111715605669_);}
</style>
<g id="OBJECTS">
	<g>
		<g>
			<g>
				<path class="st0" d="M292,417.8c0,0-6.5-52.6,39.5-68.5c6.5-0.6-20,26.8-15.8,20.6c0,0,16.7-18.9,27.3-19.3
					c4.1,1.3,4.1,1.3,4.1,1.3s-22.5,19.1-17.8,24.2c5.9,1.8,20.9-22.5,26.7-23.2c5.8-0.8,5.8-0.8,5.8-0.8s-19.6,19.8-18.4,24.3
					c4-1,19.1-24.1,25.6-23.5c6.5,0.6,9.3,5.9,9.3,5.9s-20,9.3-20.2,14.4c-0.1,5.2,6,9.3,10.8,2.3s7.6-12.5,15-13.5
					s19.1,4.2,23.2,8.8c3.9,4.2-27.8,10.5-21.5,14c6.3,3.5,24.7-10,31-6.6c6.3,3.5,29,30.7,27,32.3c-2,1.6-23,3.5-23,3.5
					s-8.5-10.8-17.5-12.9c-9-2.1-0.7,6.9-0.7,6.9l-27.2-9.4l-43.4,4.5L292,417.8z"/>
			</g>
			<path class="st1" d="M302.5,424.8c0,0-15.6,3.4-23.3-7.4c-7.7-10.8-4.9-10.2-3.2-12.7c1.6-2.5,11.4,9.7,12.6,7
				s-11.9-10.7-12.7-14.6s-0.7-9.4,2-10c2.7-0.5,27.6,22.1,33.3,19.1c5.7-2.9-5.7-11.8-11.8-14.6c-6.1-2.8-17.4-4.1-15.2-6.5
				s11.2-14.3,37.5-11c7.6,4.1,8.5,23.6,12.3,23.7c3.9,0.1-7.9-21.7-4.6-21.8c3.4-0.1,4.9-0.4,6.6,4.6s3.8,17.9,10,17.7
				s-5.7-18.2-2-18.5s10.4,1.3,12.3,4.2c1.9,2.8,1,12.6,5.9,12.2c4.9-0.4-1.5-10.2,3.7-9.1s38,21.7,38,21.7S379.9,392.6,302.5,424.8
				z"/>
		</g>
		<path class="st2" d="M270,80.9c0,0,48.8-37.1,112.6-1.2s67.3,149.7,8.1,195S346.7,415.2,274.7,435c-72,19.7-152.1,0-191.5-72
			s0-134.6,45.3-154.4s81.3-37.1,89.4-63.8S248,89.1,270,80.9z"/>
		<path class="st1" d="M258.8,311c-1.9-0.9-1.6,8.7-4.8,15.2c-3.2,6.5-7.2,9.7-8.6,7.4c-1.4-2.4,8.7-15.4,8.9-21.1
			c0.3-5.7-6.8-11.5-8.3-11.6s-2,21.5-4.9,24.4c-2.8,2.9-3.8-0.6-1.7-4.7s4.8-16.4,2.7-19.2c-2.2-2.8-9.2-5.7-9.8-4.4
			s2.5,7.2,3.3,11.7c0.7,4.4,0,8.8-3.8,7.1c-3.8-1.7,0.7-13.7,0-16.5c-0.6-2.7-8.8-5.7-10.5-5.6c-1.7,0.1-14.4,11.4-14.6,14.9
			c1.9,5.3,12.6,13.5,15.3,13.7c2.7,0.2,6.2,3.6,1.7,4.7c-5,0.5-16.9-13-17.6-13.4c-0.7-0.4-2.8,2.1-2.8,6.2s11,10.6,15.2,11.6
			c4.2,1,13.2,5.3,5,7.6c-8.2,2.2-19.9-10.7-22.2-9.7c-2.4,1-1.1,7.6-0.7,10.1c0.5,2.5,4.6,5,9.2,5.7c4.6,0.6,17.8-2.1,16.2,2.6
			c-1.6,4.7-23.2-2.6-24.8-1.6c-1.6,1.1-1.7,6.2,1.6,10.6c3.1,4.2,22.9-3.7,24.3,0.2c-3.2,6.5-19.2,2.2-21.4,4.1
			c-2.2,2,0.8,7.3,2.9,10.5c2.2,3.2,4.7,2.8,10.4,0.6c5.7-2.2,11.9-10.6,12.3-7c-1.3,3.8-13.2,9.2-14.8,11.4
			c-0.4,3.2,5.6,7.8,7.2,9.6c1.6,1.8,12.8-20.9,14.2-17.8s-10.2,14.9-10.6,16.4s4.4,3.7,7.4,1.8c15.4-10.6,12.1-24.5,10.2-29.5
			c6.6,14.6,15,13.3,18.4,11.6c3.6-1.7,6.8-9.8,5.8-11.7c-1.1-2-4.8,3.2-10.8,3.4c-6,0.2-8.1-4.1-8-5.6s12.6,1.9,16.7-5.8
			s1.4-20.6,0.1-21.2s-8.1,12-11.2,13c-3.1,1-4.4-0.1-3.5-3.5s12.2-9.8,12.1-14.4C264.2,318.2,260.6,311.9,258.8,311z M239.2,354.9
			c1.6,4.2-2.5,5.6-2.5,5.6c-3.4,0.8-4.8-3.6-4.5-8.3C232.5,347.4,237.7,350.7,239.2,354.9z M233.2,345.7c-3-2.5-0.7-6.1,2-3.6
			C237.8,344.6,233.2,345.7,233.2,345.7z"/>
		<g>
			<ellipse class="st3" cx="215.1" cy="114.2" rx="42" ry="42"/>
			<path class="st4" d="M394.6,243.4H293c-4.6,0-8.4-3.8-8.4-8.4v-94.6c0-4.6,3.8-8.4,8.4-8.4h101.6c4.6,0,8.4,3.8,8.4,8.4V235
				C403,239.7,399.2,243.4,394.6,243.4z"/>
			<g>
				<g>
					
						<linearGradient id="SVGID_1_" gradientUnits="userSpaceOnUse" x1="295.7915" y1="238.8265" x2="295.7915" y2="334.071" gradientTransform="matrix(1 0 0 -1 0 502)">
						<stop  offset="0" style="stop-color:#D8E2F6"/>
						<stop  offset="9.700000e-03" style="stop-color:#DAE3F6"/>
						<stop  offset="0.1219" style="stop-color:#EBF0FA"/>
						<stop  offset="0.2609" style="stop-color:#F6F9FD"/>
						<stop  offset="0.4566" style="stop-color:#FDFEFF"/>
						<stop  offset="1" style="stop-color:#FFFFFF"/>
					</linearGradient>
					<path class="st5" d="M196.1,119.2v104.9c0,5.1,4.1,9.2,9.2,9.2h180.8c5.1,0,9.2-4.1,9.2-9.2V119.2H196.1z"/>
					
						<linearGradient id="SVGID_00000003806365030791798170000003048134787195955095_" gradientUnits="userSpaceOnUse" x1="295.7915" y1="357.2223" x2="295.7915" y2="409.8444" gradientTransform="matrix(1 0 0 -1 0 502)">
						<stop  offset="0" style="stop-color:#6060E7"/>
						<stop  offset="1" style="stop-color:#8182EE"/>
					</linearGradient>
					<path style="fill:url(#SVGID_00000003806365030791798170000003048134787195955095_);" d="M386.2,98.3H205.4
						c-5.1,0-9.2,4.1-9.2,9.2v18.7h199.3v-18.7C395.5,102.4,391.3,98.3,386.2,98.3z"/>
					<g>
						
							<linearGradient id="SVGID_00000176025989958930479670000012707608910437110145_" gradientUnits="userSpaceOnUse" x1="217.193" y1="448.9209" x2="217.193" y2="364.8332" gradientTransform="matrix(1 0 0 -1 0 502)">
							<stop  offset="0" style="stop-color:#D8E2F6"/>
							<stop  offset="9.700000e-03" style="stop-color:#DAE3F6"/>
							<stop  offset="0.1219" style="stop-color:#EBF0FA"/>
							<stop  offset="0.2609" style="stop-color:#F6F9FD"/>
							<stop  offset="0.4566" style="stop-color:#FDFEFF"/>
							<stop  offset="1" style="stop-color:#FFFFFF"/>
						</linearGradient>
						<path style="fill:url(#SVGID_00000176025989958930479670000012707608910437110145_);" d="M217.2,112.3L217.2,112.3
							c-2.5,0-4.5-2-4.5-4.5V92.1c0-2.5,2-4.5,4.5-4.5l0,0c2.5,0,4.5,2,4.5,4.5v15.7C221.6,110.3,219.7,112.3,217.2,112.3z"/>
						
							<linearGradient id="SVGID_00000058558450222891686830000015220592047606500515_" gradientUnits="userSpaceOnUse" x1="269.592" y1="448.9209" x2="269.592" y2="364.8332" gradientTransform="matrix(1 0 0 -1 0 502)">
							<stop  offset="0" style="stop-color:#D8E2F6"/>
							<stop  offset="9.700000e-03" style="stop-color:#DAE3F6"/>
							<stop  offset="0.1219" style="stop-color:#EBF0FA"/>
							<stop  offset="0.2609" style="stop-color:#F6F9FD"/>
							<stop  offset="0.4566" style="stop-color:#FDFEFF"/>
							<stop  offset="1" style="stop-color:#FFFFFF"/>
						</linearGradient>
						<path style="fill:url(#SVGID_00000058558450222891686830000015220592047606500515_);" d="M269.6,112.3L269.6,112.3
							c-2.5,0-4.5-2-4.5-4.5V92.1c0-2.5,2-4.5,4.5-4.5l0,0c2.5,0,4.5,2,4.5,4.5v15.7C274,110.3,272.1,112.3,269.6,112.3z"/>
						
							<linearGradient id="SVGID_00000017492624691555738000000006274492411380504748_" gradientUnits="userSpaceOnUse" x1="321.991" y1="448.9209" x2="321.991" y2="364.8332" gradientTransform="matrix(1 0 0 -1 0 502)">
							<stop  offset="0" style="stop-color:#D8E2F6"/>
							<stop  offset="9.700000e-03" style="stop-color:#DAE3F6"/>
							<stop  offset="0.1219" style="stop-color:#EBF0FA"/>
							<stop  offset="0.2609" style="stop-color:#F6F9FD"/>
							<stop  offset="0.4566" style="stop-color:#FDFEFF"/>
							<stop  offset="1" style="stop-color:#FFFFFF"/>
						</linearGradient>
						<path style="fill:url(#SVGID_00000017492624691555738000000006274492411380504748_);" d="M322,112.3L322,112.3
							c-2.5,0-4.5-2-4.5-4.5V92.1c0-2.5,2-4.5,4.5-4.5l0,0c2.5,0,4.5,2,4.5,4.5v15.7C326.4,110.3,324.5,112.3,322,112.3z"/>
						
							<linearGradient id="SVGID_00000004526989157013978090000015334614597675908526_" gradientUnits="userSpaceOnUse" x1="374.391" y1="448.9209" x2="374.391" y2="364.8332" gradientTransform="matrix(1 0 0 -1 0 502)">
							<stop  offset="0" style="stop-color:#D8E2F6"/>
							<stop  offset="9.700000e-03" style="stop-color:#DAE3F6"/>
							<stop  offset="0.1219" style="stop-color:#EBF0FA"/>
							<stop  offset="0.2609" style="stop-color:#F6F9FD"/>
							<stop  offset="0.4566" style="stop-color:#FDFEFF"/>
							<stop  offset="1" style="stop-color:#FFFFFF"/>
						</linearGradient>
						<path style="fill:url(#SVGID_00000004526989157013978090000015334614597675908526_);" d="M374.4,112.3L374.4,112.3
							c-2.5,0-4.5-2-4.5-4.5V92.1c0-2.5,2-4.5,4.5-4.5l0,0c2.5,0,4.5,2,4.5,4.5v15.7C378.8,110.3,376.8,112.3,374.4,112.3z"/>
					</g>
				</g>
				<g>
					<g>
						<path class="st11" d="M244.5,162.7h-21.2c-0.9,0-1.5-0.7-1.5-1.5V140c0-0.9,0.7-1.5,1.5-1.5h21.2c0.9,0,1.5,0.7,1.5,1.5v21.2
							C246,162,245.3,162.7,244.5,162.7z"/>
						<path class="st12" d="M275.4,162.7h-21.2c-0.9,0-1.5-0.7-1.5-1.5V140c0-0.9,0.7-1.5,1.5-1.5h21.2c0.9,0,1.5,0.7,1.5,1.5v21.2
							C277,162,276.3,162.7,275.4,162.7z"/>
						<path class="st11" d="M306.4,162.7h-21.2c-0.9,0-1.5-0.7-1.5-1.5V140c0-0.9,0.7-1.5,1.5-1.5h21.2c0.9,0,1.5,0.7,1.5,1.5v21.2
							C307.9,162,307.2,162.7,306.4,162.7z"/>
						<path class="st11" d="M337.3,162.7h-21.2c-0.9,0-1.5-0.7-1.5-1.5V140c0-0.9,0.7-1.5,1.5-1.5h21.2c0.9,0,1.5,0.7,1.5,1.5v21.2
							C338.9,162,338.2,162.7,337.3,162.7z"/>
						<path class="st11" d="M368.3,162.7h-21.2c-0.9,0-1.5-0.7-1.5-1.5V140c0-0.9,0.7-1.5,1.5-1.5h21.2c0.9,0,1.5,0.7,1.5,1.5v21.2
							C369.8,162,369.1,162.7,368.3,162.7z"/>
					</g>
					<g>
						<path class="st11" d="M244.5,192.1h-21.2c-0.9,0-1.5-0.7-1.5-1.5v-21.2c0-0.9,0.7-1.5,1.5-1.5h21.2c0.9,0,1.5,0.7,1.5,1.5
							v21.2C246,191.4,245.3,192.1,244.5,192.1z"/>
						
							<linearGradient id="SVGID_00000156584854256484211020000011656599187823687827_" gradientUnits="userSpaceOnUse" x1="252.704" y1="322.0135" x2="276.973" y2="322.0135" gradientTransform="matrix(1 0 0 -1 0 502)">
							<stop  offset="0" style="stop-color:#6060E7"/>
							<stop  offset="1" style="stop-color:#8182EE"/>
						</linearGradient>
						<path style="fill:url(#SVGID_00000156584854256484211020000011656599187823687827_);" d="M275.4,192.1h-21.2
							c-0.9,0-1.5-0.7-1.5-1.5v-21.2c0-0.9,0.7-1.5,1.5-1.5h21.2c0.9,0,1.5,0.7,1.5,1.5v21.2C277,191.4,276.3,192.1,275.4,192.1z"/>
						<path class="st11" d="M306.4,192.1h-21.2c-0.9,0-1.5-0.7-1.5-1.5v-21.2c0-0.9,0.7-1.5,1.5-1.5h21.2c0.9,0,1.5,0.7,1.5,1.5
							v21.2C307.9,191.4,307.2,192.1,306.4,192.1z"/>
						<path class="st14" d="M337.3,192.1h-21.2c-0.9,0-1.5-0.7-1.5-1.5v-21.2c0-0.9,0.7-1.5,1.5-1.5h21.2c0.9,0,1.5,0.7,1.5,1.5
							v21.2C338.9,191.4,338.2,192.1,337.3,192.1z"/>
						<path class="st14" d="M368.3,192.1h-21.2c-0.9,0-1.5-0.7-1.5-1.5v-21.2c0-0.9,0.7-1.5,1.5-1.5h21.2c0.9,0,1.5,0.7,1.5,1.5
							v21.2C369.8,191.4,369.1,192.1,368.3,192.1z"/>
					</g>
					<g>
						<path class="st12" d="M244.5,221.5h-21.2c-0.9,0-1.5-0.7-1.5-1.5v-21.2c0-0.9,0.7-1.5,1.5-1.5h21.2c0.9,0,1.5,0.7,1.5,1.5V220
							C246,220.8,245.3,221.5,244.5,221.5z"/>
						<path class="st11" d="M275.4,221.5h-21.2c-0.9,0-1.5-0.7-1.5-1.5v-21.2c0-0.9,0.7-1.5,1.5-1.5h21.2c0.9,0,1.5,0.7,1.5,1.5V220
							C277,220.8,276.3,221.5,275.4,221.5z"/>
						<path class="st11" d="M306.4,221.5h-21.2c-0.9,0-1.5-0.7-1.5-1.5v-21.2c0-0.9,0.7-1.5,1.5-1.5h21.2c0.9,0,1.5,0.7,1.5,1.5V220
							C307.9,220.8,307.2,221.5,306.4,221.5z"/>
						<path class="st11" d="M337.3,221.5h-21.2c-0.9,0-1.5-0.7-1.5-1.5v-21.2c0-0.9,0.7-1.5,1.5-1.5h21.2c0.9,0,1.5,0.7,1.5,1.5V220
							C338.9,220.8,338.2,221.5,337.3,221.5z"/>
						<path class="st11" d="M368.3,221.5h-21.2c-0.9,0-1.5-0.7-1.5-1.5v-21.2c0-0.9,0.7-1.5,1.5-1.5h21.2c0.9,0,1.5,0.7,1.5,1.5V220
							C369.8,220.8,369.1,221.5,368.3,221.5z"/>
					</g>
				</g>
			</g>
		</g>
		<path class="st15" d="M145.2,290.5c-46.7,0-84.5-37.9-84.5-84.5"/>
		<line class="st15" x1="412.8" y1="142.8" x2="412.8" y2="174.6"/>
		<g>
			
				<linearGradient id="SVGID_00000148641352908226368190000002235701254993657216_" gradientUnits="userSpaceOnUse" x1="360.017" y1="192.955" x2="372.7852" y2="246.9295" gradientTransform="matrix(1 0 0 -1 0 502)">
				<stop  offset="0" style="stop-color:#6060E7"/>
				<stop  offset="1" style="stop-color:#8182EE"/>
			</linearGradient>
			<path style="fill:url(#SVGID_00000148641352908226368190000002235701254993657216_);" d="M415.6,285.1h-93.6
				c-2.3,0-4.2-1.9-4.2-4.2v-17.6c0-2.3,1.9-4.2,4.2-4.2h93.6c2.3,0,4.2,1.9,4.2,4.2v17.6C419.8,283.3,417.9,285.1,415.6,285.1z"/>
			<path class="st17" d="M404.7,269.8h-69.9c-1.1,0-2-0.9-2-2l0,0c0-1.1,0.9-2,2-2h69.9c1.1,0,2,0.9,2,2l0,0
				C406.7,268.9,405.8,269.8,404.7,269.8z"/>
			<path class="st17" d="M348.2,278.2h-13.4c-1.1,0-2-0.9-2-2l0,0c0-1.1,0.9-2,2-2h13.4c1.1,0,2,0.9,2,2l0,0
				C350.2,277.3,349.3,278.2,348.2,278.2z"/>
		</g>
		<g>
			
				<linearGradient id="SVGID_00000052090089604599155710000004919766530958502786_" gradientUnits="userSpaceOnUse" x1="381.4645" y1="233.0466" x2="398.4485" y2="304.8425" gradientTransform="matrix(1 0 0 -1 0 502)">
				<stop  offset="0" style="stop-color:#6060E7"/>
				<stop  offset="1" style="stop-color:#8182EE"/>
			</linearGradient>
			<circle style="fill:url(#SVGID_00000052090089604599155710000004919766530958502786_);" cx="393.1" cy="219.8" r="31.3"/>
			
				<linearGradient id="SVGID_00000026125945486617052040000003105625492804724415_" gradientUnits="userSpaceOnUse" x1="383.4727" y1="241.5355" x2="397.5211" y2="300.9222" gradientTransform="matrix(1 0 0 -1 0 502)">
				<stop  offset="0" style="stop-color:#D8E2F6"/>
				<stop  offset="9.700000e-03" style="stop-color:#DAE3F6"/>
				<stop  offset="0.1219" style="stop-color:#EBF0FA"/>
				<stop  offset="0.2609" style="stop-color:#F6F9FD"/>
				<stop  offset="0.4566" style="stop-color:#FDFEFF"/>
				<stop  offset="1" style="stop-color:#FFFFFF"/>
			</linearGradient>
			<circle style="fill:url(#SVGID_00000026125945486617052040000003105625492804724415_);" cx="393.1" cy="219.8" r="25.9"/>
			
				<linearGradient id="SVGID_00000000944276824831610410000009437119397054130080_" gradientUnits="userSpaceOnUse" x1="393.596" y1="278.2125" x2="398.6501" y2="299.5781" gradientTransform="matrix(1 0 0 -1 0 502)">
				<stop  offset="0" style="stop-color:#6060E7"/>
				<stop  offset="1" style="stop-color:#8182EE"/>
			</linearGradient>
			
				<polyline style="fill:none;stroke:url(#SVGID_00000000944276824831610410000009437119397054130080_);stroke-width:2;stroke-linecap:round;stroke-linejoin:round;stroke-miterlimit:10;" points="
				392.7,202 392.7,222.5 402.2,213.1 			"/>
		</g>
		
			<linearGradient id="SVGID_00000023257716447415834310000009681269808525131440_" gradientUnits="userSpaceOnUse" x1="359.0154" y1="186.3545" x2="362.1487" y2="199.5996" gradientTransform="matrix(1 0 0 -1 0 502)">
			<stop  offset="0" style="stop-color:#6060E7"/>
			<stop  offset="1" style="stop-color:#8182EE"/>
		</linearGradient>
		
			<path style="fill:none;stroke:url(#SVGID_00000023257716447415834310000009681269808525131440_);stroke-width:2;stroke-linecap:round;stroke-linejoin:round;stroke-miterlimit:10;" d="
			M366.4,309c0,3.2-2.6,5.8-5.8,5.8c-3.2,0-5.8-2.6-5.8-5.8s2.6-5.8,5.8-5.8C363.8,303.2,366.4,305.8,366.4,309z"/>
		
			<linearGradient id="SVGID_00000162324843814220544390000008833766559337540237_" gradientUnits="userSpaceOnUse" x1="362.6405" y1="172.2402" x2="363.9397" y2="177.7324" gradientTransform="matrix(1 0 0 -1 0 502)">
			<stop  offset="0" style="stop-color:#6060E7"/>
			<stop  offset="1" style="stop-color:#8182EE"/>
		</linearGradient>
		
			<path style="fill:none;stroke:url(#SVGID_00000162324843814220544390000008833766559337540237_);stroke-linecap:round;stroke-linejoin:round;stroke-miterlimit:10;" d="
			M365.6,327c0,1.3-1,2.3-2.3,2.3c-1.3,0-2.3-1-2.3-2.3s1-2.3,2.3-2.3C364.6,324.7,365.6,325.7,365.6,327z"/>
		
			<linearGradient id="SVGID_00000034068102991809692230000005503875752947654589_" gradientUnits="userSpaceOnUse" x1="67.8281" y1="240.8677" x2="76.3402" y2="195.9857" gradientTransform="matrix(1 0 0 -1 0 502)">
			<stop  offset="0" style="stop-color:#6060E7"/>
			<stop  offset="1" style="stop-color:#8182EE"/>
		</linearGradient>
		<path style="fill:url(#SVGID_00000034068102991809692230000005503875752947654589_);" d="M77.7,276.7c0,3.8-3.1,7-7,7
			c-3.8,0-7-3.1-7-7c0-3.8,3.1-7,7-7C74.6,269.8,77.7,272.9,77.7,276.7z"/>
		
			<linearGradient id="SVGID_00000083086783379755158310000010320565690328607108_" gradientUnits="userSpaceOnUse" x1="178.2521" y1="420.4346" x2="182.981" y2="395.5001" gradientTransform="matrix(1 0 0 -1 0 502)">
			<stop  offset="0" style="stop-color:#6060E7"/>
			<stop  offset="1" style="stop-color:#8182EE"/>
		</linearGradient>
		<path style="fill:url(#SVGID_00000083086783379755158310000010320565690328607108_);" d="M183.8,90.2c0,2.1-1.7,3.9-3.9,3.9
			s-3.9-1.7-3.9-3.9s1.7-3.9,3.9-3.9S183.8,88.1,183.8,90.2z"/>
		
			<linearGradient id="SVGID_00000077282324151726793330000013666238518212148118_" gradientUnits="userSpaceOnUse" x1="387.1851" y1="214.5962" x2="391.9141" y2="189.6617" gradientTransform="matrix(1 0 0 -1 0 502)">
			<stop  offset="0" style="stop-color:#6060E7"/>
			<stop  offset="1" style="stop-color:#8182EE"/>
		</linearGradient>
		<path style="fill:url(#SVGID_00000077282324151726793330000013666238518212148118_);" d="M392.7,296.1c0,2.1-1.7,3.9-3.9,3.9
			s-3.9-1.7-3.9-3.9s1.7-3.9,3.9-3.9S392.7,293.9,392.7,296.1z"/>
		<g>
			<g>
				<path class="st0" d="M230.5,430.5c0,0,16.7-61.5-35.2-88.4c-7.6-1.8,19.2,35.3,15.3,27.3c0,0-16.7-25.4-29.2-27.6
					c-5.1,0.8-5.1,0.8-5.1,0.8s23.6,26.6,17,31.9c-7.3,1.1-21.1-30.4-27.9-32.3s-6.8-1.9-6.8-1.9s20,27,17.8,32.1
					c-4.6-1.8-18.6-32-26.5-32.4s-12.1,5.4-12.1,5.4s22.3,14.5,21.5,20.7s-8.7,10.1-13.3,0.9c-4.5-9.2-7-16.1-15.6-18.6
					c-8.6-2.5-23.5,1.7-29.2,6.5c-5.3,4.3,31.4,17.3,23.2,20.4S96.9,359,88.8,362.1c-8.1,3.1-39.8,31.6-37.7,33.8s26.8,8.1,26.8,8.1
					s12-11.5,23-12.4s-2.2,9-2.2,9l35.8-7.1l50.9,12.8L230.5,430.5z"/>
			</g>
			<path class="st1" d="M216.9,437c0,0,18,6.8,29-4.8c11.1-11.5,7.6-11.3,6-14.6s-15.3,9.6-16.2,6.2c-0.9-3.4,16.1-10.7,17.6-15.2
				c1.5-4.5,2.4-11.1-0.7-12.2c-3.1-1.1-36.7,21.6-42.9,17.1c-6.2-4.5,8.9-13.1,16.6-15.4s21.4-1.9,19.3-5.1
				c-2.1-3.2-10.9-19-42.7-19.6c-9.8,3.5-14.1,26.6-18.7,26.1c-4.6-0.5,13.2-24.5,9.2-25.2s-5.7-1.3-8.7,4.3
				c-3,5.7-7.6,20.7-15,19.3s9.9-20.7,5.5-21.6c-4.4-0.9-12.7-0.2-15.4,2.8c-2.7,3-3.4,14.8-9.1,13.5c-5.7-1.3,3.6-11.9-2.9-11.5
				s-49,19.4-49,19.4S149,377.2,216.9,437z"/>
		</g>
		<g>
			
				<linearGradient id="SVGID_00000009565585856808665830000011962161299917621123_" gradientUnits="userSpaceOnUse" x1="210.4481" y1="121.9641" x2="166.7493" y2="179.7354" gradientTransform="matrix(1 0 0 -1 0 502)">
				<stop  offset="0" style="stop-color:#FF8D02"/>
				<stop  offset="1" style="stop-color:#FFC757"/>
			</linearGradient>
			<path style="fill:url(#SVGID_00000009565585856808665830000011962161299917621123_);" d="M251.9,334.8c0,0-16.2,6.2-24.8,20.1
				s-32.5,35.6-52.6,27.9c-20.1-7.7-36.4-42.6-44.9-44.1c-8.5-1.5-16.2,4.6-11.6,16.2s31.7,55.7,70.4,65
				c38.7,9.3,69.6-20.1,69.6-20.1S272.8,349.5,251.9,334.8z"/>
			<g>
				<g>
					
						<linearGradient id="SVGID_00000136370779706611237140000005913007374739346816_" gradientUnits="userSpaceOnUse" x1="278.7462" y1="281.4466" x2="324.0151" y2="114.3001" gradientTransform="matrix(1 0 0 -1 0 502)">
						<stop  offset="0" style="stop-color:#842C01"/>
						<stop  offset="1" style="stop-color:#410C2B"/>
					</linearGradient>
					<path style="fill:url(#SVGID_00000136370779706611237140000005913007374739346816_);" d="M280.5,257.4c0,0,16.2,0.8,25.5,20.1
						s11.6,17,27.9,22.4s11.6,30.2,20.9,34.8s26.3,13.9,27.1,39.5s-41.8,53.4-78.2,31s-31.7-50.3-39.5-63.5s-17-11.6-22.4-25.5
						c-5.4-13.9,6.2-25.5,7-33.3C249.5,275.2,258.8,252,280.5,257.4z"/>
					
						<linearGradient id="SVGID_00000168826155806261138470000014525417233675684513_" gradientUnits="userSpaceOnUse" x1="250.9166" y1="255.4635" x2="269.0321" y2="188.5756" gradientTransform="matrix(1 0 0 -1 0 502)">
						<stop  offset="0" style="stop-color:#842C01"/>
						<stop  offset="1" style="stop-color:#410C2B"/>
					</linearGradient>
					<path style="fill:url(#SVGID_00000168826155806261138470000014525417233675684513_);" d="M283,257.7c0,0-21.7-7.7-41.3,10.3
						c-19.7,18-11,45.7,11.3,61.7c18.3-9.7,36-67,36-67L283,257.7z"/>
				</g>
				
					<linearGradient id="SVGID_00000075867152699078990070000012437124164700609164_" gradientUnits="userSpaceOnUse" x1="281.0779" y1="87.7833" x2="162.6824" y2="238.6793" gradientTransform="matrix(1 0 0 -1 0 502)">
					<stop  offset="0" style="stop-color:#FF8D02"/>
					<stop  offset="1" style="stop-color:#FFC757"/>
				</linearGradient>
				<path style="fill:url(#SVGID_00000075867152699078990070000012437124164700609164_);" d="M314.7,354.3
					c-13.3-22.1-36.6-25.5-36.6-25.5c-11-2.3-27.3,5.2-34.2,11.6s-12.8,29-12.8,29s-15.1,20.3-15.1,29.6s7.5,16.8,7.5,22.1
					c0,4-0.3,14.7-1.8,21.1c17.6,0,35.5-2.4,52.9-7.2c23.4-6.4,37.6-20.8,48.2-38.9C323.3,383.4,322.1,366.5,314.7,354.3z"/>
				<path class="st30" d="M290.3,332.7c-0.2-0.1-0.4-0.2-0.5-0.2c-16.8,24.3-40.1,28.1-42.7,28.5c-2.3-7.7-2.1-16.2-1.5-21.9
					c-0.2,0.2-0.4,0.3-0.6,0.5c-0.5,5.8-0.7,14.2,1.6,21.8l0.1,0.2l0.2,0C247.1,361.5,272.4,358.7,290.3,332.7z"/>
				<g>
					
						<linearGradient id="SVGID_00000053547477747076139060000003874948632889361302_" gradientUnits="userSpaceOnUse" x1="260.4816" y1="147.9712" x2="270.1125" y2="182.1611" gradientTransform="matrix(1 0 0 -1 0 502)">
						<stop  offset="0" style="stop-color:#FFB58E"/>
						<stop  offset="0.3031" style="stop-color:#FEB28B"/>
						<stop  offset="0.5455" style="stop-color:#FDA981"/>
						<stop  offset="0.7669" style="stop-color:#FA9A70"/>
						<stop  offset="0.9747" style="stop-color:#F68558"/>
						<stop  offset="1" style="stop-color:#F58255"/>
					</linearGradient>
					<path style="fill:url(#SVGID_00000053547477747076139060000003874948632889361302_);" d="M260.3,308.5c0,0-11.2,12.8-10.8,47.1
						c6.5-0.8,18.8-6.2,28.9-16.2c4.3-4.2,4.2-7,2.3-12.7c-0.9-2.8-0.1-9.8,1.4-17.7C282,297.5,260.3,308.5,260.3,308.5z"/>
					<g>
						<g>
							<g>
								
									<linearGradient id="SVGID_00000051371242877093137970000010547408508655031194_" gradientUnits="userSpaceOnUse" x1="259.8646" y1="244.5947" x2="278.4365" y2="181.9146" gradientTransform="matrix(1 0 0 -1 0 502)">
									<stop  offset="0" style="stop-color:#FFB58E"/>
									<stop  offset="0.3282" style="stop-color:#FEB38B"/>
									<stop  offset="0.5908" style="stop-color:#FCAD81"/>
									<stop  offset="0.8298" style="stop-color:#F9A370"/>
									<stop  offset="1" style="stop-color:#F5985F"/>
								</linearGradient>
								<path style="fill:url(#SVGID_00000051371242877093137970000010547408508655031194_);" d="M252.9,271.1
									c-2.5,3.8-8.8,13.9-11.9,23.2c-2.7,8.2,1.7,17.2,9.9,19.8c11.8,3.8,28.9,4.5,33.4-1.4c6.7-8.8,21.9-23.8,11.9-40.1
									c-9.7-15.8-26-17.9-40.9-4.3C254.4,269.1,253.6,270,252.9,271.1z"/>
							</g>
							<g>
								<circle class="st33" cx="269.5" cy="302.4" r="5.6"/>
								<path class="st33" d="M240.3,300c2.7-0.4,4.8-2.7,4.8-5.6c0-1.9-0.9-3.6-2.4-4.6c-0.6,1.5-1.2,3-1.7,4.4
									C240.4,296.2,240.2,298.1,240.3,300z"/>
								<g>
									
										<linearGradient id="SVGID_00000149362609423706404520000006249849898299704497_" gradientUnits="userSpaceOnUse" x1="246.2847" y1="226.1506" x2="257.5348" y2="202.9005" gradientTransform="matrix(1 0 0 -1 0 502)">
										<stop  offset="0" style="stop-color:#842C01"/>
										<stop  offset="1" style="stop-color:#410C2B"/>
									</linearGradient>
									<circle style="fill:url(#SVGID_00000149362609423706404520000006249849898299704497_);" cx="250.9" cy="285.3" r="2"/>
									
										<linearGradient id="SVGID_00000156574472863721846300000015894892504527669417_" gradientUnits="userSpaceOnUse" x1="260.5347" y1="221.9006" x2="271.7848" y2="198.6505" gradientTransform="matrix(1 0 0 -1 0 502)">
										<stop  offset="0" style="stop-color:#842C01"/>
										<stop  offset="1" style="stop-color:#410C2B"/>
									</linearGradient>
									<circle style="fill:url(#SVGID_00000156574472863721846300000015894892504527669417_);" cx="265.1" cy="289.6" r="2"/>
									<path class="st17" d="M249.4,298.7c0,0,5.5,1.2,7.7,1.2c0,2.2-2.9,4.8-6.6,2.9C248,301.6,249.4,298.7,249.4,298.7z"/>
								</g>
							</g>
						</g>
						
							<linearGradient id="SVGID_00000089533382484332819860000012674913574311350401_" gradientUnits="userSpaceOnUse" x1="265.5755" y1="277.8795" x2="310.8446" y2="110.7324" gradientTransform="matrix(1 0 0 -1 0 502)">
							<stop  offset="0" style="stop-color:#842C01"/>
							<stop  offset="1" style="stop-color:#410C2B"/>
						</linearGradient>
						<path style="fill:url(#SVGID_00000089533382484332819860000012674913574311350401_);" d="M259.1,263.4c0,0-8,18.1,27.2,38.4
							l4.5,2.9c0,0,12.2-9.3,10.2-22.4c-2.1-13.1-9.1-19.2-15.9-23.4C278.3,254.6,262.7,259.4,259.1,263.4z"/>
					</g>
					
						<linearGradient id="SVGID_00000068675955090439582600000005304405741384038583_" gradientUnits="userSpaceOnUse" x1="286.0968" y1="237.7778" x2="287.8379" y2="201.7949" gradientTransform="matrix(1 0 0 -1 0 502)">
						<stop  offset="0" style="stop-color:#FFB58E"/>
						<stop  offset="0.3282" style="stop-color:#FEB38B"/>
						<stop  offset="0.5908" style="stop-color:#FCAD81"/>
						<stop  offset="0.8298" style="stop-color:#F9A370"/>
						<stop  offset="1" style="stop-color:#F5985F"/>
					</linearGradient>
					<path style="fill:url(#SVGID_00000068675955090439582600000005304405741384038583_);" d="M285.9,304.6c0,0,7.2-4.5,8.2,1.3
						c0.9,5.8-9.7,9.4-11.4,6.7C281.1,309.9,285.9,304.6,285.9,304.6z"/>
				</g>
			</g>
			<path class="st30" d="M287.3,430.3c8.4-25.8,3.8-51.3,3.8-51.6L290,379c0.1,0.3,4.7,26.2-4.1,52
				C286.4,430.8,286.9,430.5,287.3,430.3z"/>
			
				<linearGradient id="SVGID_00000096779094780929166270000012588527652856943772_" gradientUnits="userSpaceOnUse" x1="322.8293" y1="98.6904" x2="295.1596" y2="156.6648" gradientTransform="matrix(1 0 0 -1 0 502)">
				<stop  offset="0" style="stop-color:#FF8D02"/>
				<stop  offset="1" style="stop-color:#FFC757"/>
			</linearGradient>
			<path style="fill:url(#SVGID_00000096779094780929166270000012588527652856943772_);" d="M282.8,329.9L282.8,329.9
				c0,0,39.1,35.6,28.6,82.2c4.3-4.9,8-10.3,11.4-16c0.4-12.6-0.7-29.5-8.1-41.7C305.1,338.4,290.3,332.1,282.8,329.9z"/>
			<g>
				
					<linearGradient id="SVGID_00000114761364216587966170000016917834298332138407_" gradientUnits="userSpaceOnUse" x1="100.0516" y1="173.8224" x2="117.238" y2="173.8224" gradientTransform="matrix(1 0 0 -1 0 502)">
					<stop  offset="0" style="stop-color:#FFB58E"/>
					<stop  offset="0.3282" style="stop-color:#FEB38B"/>
					<stop  offset="0.5908" style="stop-color:#FCAD81"/>
					<stop  offset="0.8298" style="stop-color:#F9A370"/>
					<stop  offset="1" style="stop-color:#F5985F"/>
				</linearGradient>
				<path style="fill:url(#SVGID_00000114761364216587966170000016917834298332138407_);" d="M117.2,321.2c0,0-11.9-7.3-15.1-5.2
					s-1.7,4.9-1.7,8.4s0,12.8,5.5,15.1s9.9,0.9,9.9,0.9L117.2,321.2z"/>
				<g>
					<path class="st40" d="M114,331.8c-2.1,0.7-4.1,0.9-6,0.9c0,0-0.1,0-0.1,0l0,0c-3-0.1-5.6-0.9-7-1.5c0.1,0.4,0.2,0.9,0.3,1.3
						c1.6,0.6,4,1.2,6.8,1.3c0.5,0.1,2.2,0.6,2.1,1.8c0,0.3-0.2,0.6-0.6,0.8c-1.2,0.7-3.9,0.5-7.3-1.1c0.3,0.6,0.6,1.2,1,1.7
						c1.6,0.6,3.2,1,4.5,1c1,0,1.8-0.2,2.4-0.5c0.7-0.4,1.1-1,1.2-1.8c0.1-0.9-0.3-1.5-0.8-2c1.3-0.1,2.7-0.4,4.1-0.9L114,331.8z"/>
					<path class="st40" d="M100.5,317.7c-0.2,0.4-0.3,0.9-0.4,1.3c1.9,1.9,6.1,4.9,15,6.7l0.2-1.1
						C105.8,322.7,101.8,319.3,100.5,317.7z"/>
					<path class="st40" d="M113.9,329.1l-0.1-1.2c-6.2,0.5-11.2-2-13.5-3.3c0,0.4,0,0.9,0,1.4c2.3,1.3,6.5,3.2,11.7,3.2
						C112.7,329.2,113.3,329.2,113.9,329.1z"/>
				</g>
				
					<linearGradient id="SVGID_00000044172439366795996890000007178957946541669556_" gradientUnits="userSpaceOnUse" x1="111.9454" y1="174.2955" x2="130.027" y2="174.2955" gradientTransform="matrix(1 0 0 -1 0 502)">
					<stop  offset="0" style="stop-color:#FFB58E"/>
					<stop  offset="0.3282" style="stop-color:#FEB38B"/>
					<stop  offset="0.5908" style="stop-color:#FCAD81"/>
					<stop  offset="0.8298" style="stop-color:#F9A370"/>
					<stop  offset="1" style="stop-color:#F5985F"/>
				</linearGradient>
				<path style="fill:url(#SVGID_00000044172439366795996890000007178957946541669556_);" d="M130,340.9c0,0-6.1-5.2-7-7.8
					c-0.9-2.6-0.3-8.4-2-11c-1.7-2.6-1.7-9.9-1.2-12.5c0.3-2.6-3.8-1.5-4.1,1.7s0,5.8-0.3,8.4s-4.1,8.1-3.5,12.5s-0.9,7.3,1.7,9.3
					c2.6,2,4.7,2,4.7,2l3.2,3.8L130,340.9z"/>
			</g>
			<g>
				
					<linearGradient id="SVGID_00000164513151140763620520000014180173104477021056_" gradientUnits="userSpaceOnUse" x1="120.9498" y1="168.4377" x2="123.292" y2="158.8885" gradientTransform="matrix(1 0 0 -1 0 502)">
					<stop  offset="0" style="stop-color:#6060E7"/>
					<stop  offset="1" style="stop-color:#8182EE"/>
				</linearGradient>
				<path style="fill:url(#SVGID_00000164513151140763620520000014180173104477021056_);" d="M116,343.6c0.2-0.8,9.3-2.3,10.4-7.3
					c2-1.2,4.9,2.3,4.4,5.5c-0.6,3.2-5.2,7.3-10.2,7.5C115.7,349.6,115.4,345.6,116,343.6z"/>
			</g>
		</g>
		<g>
			
				<linearGradient id="SVGID_00000020375299628931831510000002831086272518737586_" gradientUnits="userSpaceOnUse" x1="139.6148" y1="220.2347" x2="149.1041" y2="345.1777" gradientTransform="matrix(1 0 0 -1 0 502)">
				<stop  offset="0" style="stop-color:#6060E7"/>
				<stop  offset="1" style="stop-color:#8182EE"/>
			</linearGradient>
			<circle style="fill:url(#SVGID_00000020375299628931831510000002831086272518737586_);" cx="145.3" cy="207.4" r="73.7"/>
			<g>
				
					<linearGradient id="SVGID_00000036222590692846431880000011299165995058890902_" gradientUnits="userSpaceOnUse" x1="268.1648" y1="327.0067" x2="249.0125" y2="290.4434" gradientTransform="matrix(1 0 0 -1 0 502)">
					<stop  offset="0" style="stop-color:#FFB58E"/>
					<stop  offset="0.3282" style="stop-color:#FEB38B"/>
					<stop  offset="0.5908" style="stop-color:#FCAD81"/>
					<stop  offset="0.8298" style="stop-color:#F9A370"/>
					<stop  offset="1" style="stop-color:#F5985F"/>
				</linearGradient>
				<path style="fill:url(#SVGID_00000036222590692846431880000011299165995058890902_);" d="M245.4,205.6c0,0,0-3.5,1-6.4
					s3.7-8.1,3.7-8.1c1.2-1.6,2.1,2.1,1.9,4.1c-0.2,1.9-1.2,3.9-0.8,4.3c0.4,0.4,0.4,0.4,0.4,0.4s-2.3-0.4,3.5-3.5s6.8-2.7,7.9-4.8
					c1.4-2.1,2.9-3.3,2.9-1s1.9,6.2-2.5,10.7c-4.5,4.5-8.5,3.9-9.5,5s-1.6,2.5-1.6,2.5L245.4,205.6z"/>
				<path class="st17" d="M177.3,218.3c0,0,3.6-1,11.4,7.2s18.1,18.1,28.4,17.6c10.3-0.5,26.9-39.3,26.9-39.3s4.7,0.5,9.8,4.7
					c0,0-5,48.8-23.3,57.9c-15.5,7.8-36.2,5.2-49.1-5.7C168.5,249.8,155.6,219.3,177.3,218.3z"/>
			</g>
			<g>
				<g>
					<defs>
						<circle id="SVGID_00000039105002866555164840000005360338912395410846_" cx="145.3" cy="207.4" r="73.7"/>
					</defs>
					<clipPath id="SVGID_00000116925910490468008890000000831433853801831557_">
						<use xlink:href="#SVGID_00000039105002866555164840000005360338912395410846_"  style="overflow:visible;"/>
					</clipPath>
					<g style="clip-path:url(#SVGID_00000116925910490468008890000000831433853801831557_);">
						<g>
							<polygon class="st46" points="104.9,412.1 189.4,412.1 143.3,320.6 111.1,377.2 							"/>
							<g>
								<g>
									<path class="st47" d="M190.5,473.2c0,0,4.7,5.8,5.5,6.3s13.8,6.9,13,7.5s-26.5-2.2-26.5-2.2l1.1-7.5l-0.3-3.9L190.5,473.2z
										"/>
									<path class="st47" d="M95.5,473.8c0,0,4.7,5.8,5.5,6.3s13.8,6.9,13,7.5s-26.5-2.2-26.5-2.2l1.1-7.5l-0.3-3.9L95.5,473.8z"
										/>
									
										<linearGradient id="SVGID_00000002358216102130012460000014109299711552936118_" gradientUnits="userSpaceOnUse" x1="146.9688" y1="217.1118" x2="196.8808" y2="29.0718" gradientTransform="matrix(1 0 0 -1 0 502)">
										<stop  offset="0" style="stop-color:#25437F"/>
										<stop  offset="1" style="stop-color:#6060E7"/>
									</linearGradient>
									<path style="fill:url(#SVGID_00000002358216102130012460000014109299711552936118_);" d="M175.9,300.2
										c0,0,7.4,54.5,10.3,80.2s7.4,92.7,7.4,92.7s-3.7,3.7-12.5,1.5c0,0-19.1-80.2-22.1-91.3c-2.9-11-31.7-78.8-31.7-78.8
										L175.9,300.2z"/>
									
										<linearGradient id="SVGID_00000125599849047004220440000016012287371699898761_" gradientUnits="userSpaceOnUse" x1="87.59" y1="114.1959" x2="150.16" y2="114.1959" gradientTransform="matrix(1 0 0 -1 0 502)">
										<stop  offset="0" style="stop-color:#6060E7"/>
										<stop  offset="1" style="stop-color:#25437F"/>
									</linearGradient>
									<path style="fill:url(#SVGID_00000125599849047004220440000016012287371699898761_);" d="M102.3,315.7
										c0,0,0.7,47.8,2.9,68.5c0,0-16.9,83.9-17.7,91.3c0,0,6.6,4.4,13.2,1.5c0,0,26.5-75.1,31.7-92.7s17.7-80.2,17.7-80.2
										s-25.8-11.8-43.4-2.9C106.7,301,101.6,303.9,102.3,315.7z"/>
									<g>
										
											<linearGradient id="SVGID_00000130636873340962372090000016743718898600982693_" gradientUnits="userSpaceOnUse" x1="153.8564" y1="319.9296" x2="137.6059" y2="295.5539" gradientTransform="matrix(1 0 0 -1 0 502)">
											<stop  offset="0" style="stop-color:#FFB58E"/>
											<stop  offset="0.3282" style="stop-color:#FEB38B"/>
											<stop  offset="0.5908" style="stop-color:#FCAD81"/>
											<stop  offset="0.8298" style="stop-color:#F9A370"/>
											<stop  offset="1" style="stop-color:#F5985F"/>
										</linearGradient>
										<polygon style="fill:url(#SVGID_00000130636873340962372090000016743718898600982693_);" points="151.3,186.1 
											154.2,209.7 131.8,209.7 135.8,181 										"/>
										<path class="st51" d="M151.6,188.7l-16.2-4.4l-0.8,5.4c0.7,2.9,2.7,7.8,9.1,11.1c4,1.8,7.3,2,9.6,1.8L151.6,188.7z"/>
										<g>
											<g>
												
													<linearGradient id="SVGID_00000183935339437521603910000000857237434380933765_" gradientUnits="userSpaceOnUse" x1="164.406" y1="345.4225" x2="138.8697" y2="314.6629" gradientTransform="matrix(1 0 0 -1 0 502)">
													<stop  offset="0" style="stop-color:#FFB58E"/>
													<stop  offset="0.3282" style="stop-color:#FEB38B"/>
													<stop  offset="0.5908" style="stop-color:#FCAD81"/>
													<stop  offset="0.8298" style="stop-color:#F9A370"/>
													<stop  offset="1" style="stop-color:#F5985F"/>
												</linearGradient>
												<path style="fill:url(#SVGID_00000183935339437521603910000000857237434380933765_);" d="M129.5,174.8
													c0.9,9.4,13,25.7,22.4,24.9c9.4-0.9,12.5-18.7,11.6-28.1s-9.2-16.3-18.6-15.4C135.5,157,128.6,165.4,129.5,174.8z"/>
												
													<linearGradient id="SVGID_00000174575314122801301680000007284635400038516611_" gradientUnits="userSpaceOnUse" x1="149.3082" y1="356.6521" x2="145.826" y2="311.7701" gradientTransform="matrix(1 0 0 -1 0 502)">
													<stop  offset="0" style="stop-color:#6060E7"/>
													<stop  offset="1" style="stop-color:#25437F"/>
												</linearGradient>
												<path style="fill:url(#SVGID_00000174575314122801301680000007284635400038516611_);" d="M128.8,166.1
													c0,0-1.1-8.3,4.8-11.1s21.3,0.9,26.9-6.1c5.6-7,12.9,4,9.3,9.6s-5.1,12-22.7,9.1c-8.6-1.4-10.5,4.4-10,7.2
													s3.5,7.5,3.5,8.6c0,1.2-1.9,1.2-2.6,0.2c-0.7-0.9-1.6-6.1-4.9-5.4s0.7,7.7,3.5,8.6c0,0,0.9,1.4,0.2,2.6
													c-0.7,1.2-11.7-7.2-11.9-15.2C124.7,166.5,128.8,166.1,128.8,166.1z"/>
											</g>
										</g>
										
											<linearGradient id="SVGID_00000063598703505652243280000017854721014931274639_" gradientUnits="userSpaceOnUse" x1="135.2189" y1="189.5427" x2="142.1833" y2="281.2414" gradientTransform="matrix(1 0 0 -1 0 502)">
											<stop  offset="0" style="stop-color:#1196C3"/>
											<stop  offset="1" style="stop-color:#02B2CA"/>
										</linearGradient>
										<path style="fill:url(#SVGID_00000063598703505652243280000017854721014931274639_);" d="M154.2,204.7L147,208l-14.4-4.4
											l-4.1,5c0,0-27.9,10.5-28.4,13.2c-0.6,2.8,13.8,82.3,13.8,82.3v6.1h63.5l1-89.5l-21.5-11L154.2,204.7z"/>
										
											<linearGradient id="SVGID_00000007421477663471378750000011562881958821180338_" gradientUnits="userSpaceOnUse" x1="152.6042" y1="356.3965" x2="149.122" y2="311.5145" gradientTransform="matrix(1 0 0 -1 0 502)">
											<stop  offset="0" style="stop-color:#6060E7"/>
											<stop  offset="1" style="stop-color:#25437F"/>
										</linearGradient>
										<path style="fill:url(#SVGID_00000007421477663471378750000011562881958821180338_);" d="M138.9,180.3c0,0,1.8,2,3.1,6.1
											c1.3,4,4.2-1.7,10.1-3.1c5.9-1.5,10.3,1.3,10.1,4.6c-0.2,3.3-4.5,12.1-10.9,12.6c-6.4,0.5-11.4-4.8-12.1-8.7
											c-0.7-3.9-0.9-7.5-2.4-9.9C136.7,179.5,138.9,180.3,138.9,180.3z"/>
									</g>
									<polygon class="st56" points="148,216.1 152.7,274.5 148.1,281.3 143,274.5 145.4,215.8 									"/>
								</g>
							</g>
							<path class="st17" d="M125.8,209.3c0,0,14,38.4,5,94.6c-8.9,56.2-13.2,113.6-13.2,113.6s-29.5,0.4-36.8-1.6
								c0,0,9.3-53.9,16.7-93.8s6.6-36.4,6.6-37.6c0-1.2-4.7-45.4-4.7-45.4l-2.7-18.4C96.8,220.7,116.5,211.7,125.8,209.3z"/>
							<path class="st17" d="M161,211.8c0,0,17.1,159.7,17.1,207.8h26.9c0,0-3.6-65.1-11.4-97.2S180.1,219,180.1,219
								S173.9,214.9,161,211.8z"/>
							<polyline class="st57" points="130.7,209.7 139.4,219.4 146.6,215.3 152.2,220 157.2,211.1 							"/>
							
								<linearGradient id="SVGID_00000025414125725302541440000008441993038872493978_" gradientUnits="userSpaceOnUse" x1="90.0948" y1="125.2066" x2="81.9697" y2="163.511" gradientTransform="matrix(1 0 0 -1 0 502)">
								<stop  offset="0" style="stop-color:#FFB58E"/>
								<stop  offset="0.3282" style="stop-color:#FEB38B"/>
								<stop  offset="0.5908" style="stop-color:#FCAD81"/>
								<stop  offset="0.8298" style="stop-color:#F9A370"/>
								<stop  offset="1" style="stop-color:#F5985F"/>
							</linearGradient>
							<path style="fill:url(#SVGID_00000025414125725302541440000008441993038872493978_);" d="M79.9,348.7c0,0-0.6,9.5,1.6,13.8
								c1.4,1.7,8.5,6.4,8.9,4.7c0.4-1.7-2.3-9.5-2.1-10.5c0,0,1.9,3.7,3.3,3.1c1.4-0.6-0.2-4.5-1.4-6.6s-3.1-4.7-3.1-4.7
								L79.9,348.7z"/>
							<path class="st17" d="M96.8,220.7c0,0-19.5,22.1-19.5,72.7c0,50.1,0.8,56.3,0.8,56.3h11.6c0,0,5.2-46.5,8.8-67.2
								c3.6-20.7,22.2-33.6,20.7-49.1C117.6,218,103.9,216.3,96.8,220.7z"/>
							<polygon class="st59" points="99.5,329.1 117.3,329.1 113.1,354.7 95.2,354.3 							"/>
							<path class="st59" d="M175.3,326.6l16.3-0.2c0,0,2.9,21.1,2.9,23.1l-16.9,0.4L175.3,326.6z"/>
						</g>
						<path class="st17" d="M180.1,219c0,0,10.6,5.4,13.6,32.1s3,26.7,3,26.7l-22.3,0.7L180.1,219z"/>
					</g>
				</g>
			</g>
		</g>
		<g>
			
				<linearGradient id="SVGID_00000150094038460945444390000012479283496034875564_" gradientUnits="userSpaceOnUse" x1="102.234" y1="276.8852" x2="80.8404" y2="362.46" gradientTransform="matrix(1 0 0 -1 0 502)">
				<stop  offset="0" style="stop-color:#FF8D02"/>
				<stop  offset="1" style="stop-color:#FFC757"/>
			</linearGradient>
			<path style="fill:url(#SVGID_00000150094038460945444390000012479283496034875564_);" d="M108.6,159.3H72.2
				c-6.1,0-11.1,5-11.1,11.1v14.9c0,6.1,5,11.1,11.1,11.1h28l7.5,7.5v-7.5h0.9c6.1,0,11.1-5,11.1-11.1v-14.9
				C119.7,164.3,114.7,159.3,108.6,159.3z"/>
			<g>
				<path class="st17" d="M107.8,175.8h-36c-1.1,0-2-0.9-2-2l0,0c0-1.1,0.9-2,2-2h36c1.1,0,2,0.9,2,2l0,0
					C109.9,174.9,109,175.8,107.8,175.8z"/>
				<path class="st17" d="M85.3,184.1H71.8c-1.1,0-2-0.9-2-2l0,0c0-1.1,0.9-2,2-2h13.4c1.1,0,2,0.9,2,2l0,0
					C87.3,183.2,86.4,184.1,85.3,184.1z"/>
			</g>
		</g>
		<g>
			
				<linearGradient id="SVGID_00000060028301790698667170000009692809710332235438_" gradientUnits="userSpaceOnUse" x1="209.2339" y1="77.4914" x2="285.902" y2="77.4914" gradientTransform="matrix(1 0 0 -1 0 502)">
				<stop  offset="0" style="stop-color:#6060E7"/>
				<stop  offset="1" style="stop-color:#8182EE"/>
			</linearGradient>
			<path style="fill:url(#SVGID_00000060028301790698667170000009692809710332235438_);" d="M285.9,431c0,0-4.5-25.9-19.9-24.6
				s-15.3,14.7-15.3,14.7s-6-7.3-14.7-2s-8,12.7-8,12.7s-8-4.7-14,1.3s-4.7,9.3-4.7,9.3S253.8,445.6,285.9,431z"/>
			
				<linearGradient id="SVGID_00000043422704998102886100000002166480070404415641_" gradientUnits="userSpaceOnUse" x1="306.1052" y1="110.212" x2="342.2502" y2="110.212" gradientTransform="matrix(1 0 0 -1 0 502)">
				<stop  offset="0" style="stop-color:#6060E7"/>
				<stop  offset="1" style="stop-color:#8182EE"/>
			</linearGradient>
			<path style="fill:url(#SVGID_00000043422704998102886100000002166480070404415641_);" d="M307.4,400.4c0,0-4.7-11.3,4-16.7
				c4.7-0.7,6,5.3,6,5.3s0.7-11.3,11.3-12c10.7-0.7,4.7,13.3,4.7,13.3s6.7-1.3,8.7,4s-10.1,12.2-10.1,12.2L307.4,400.4z"/>
			<path class="st0" d="M311.4,423.1c-2,3.3-4,8-5.5,11.8c10.3,1.2,18,2.6,27.2,5.2c2.2-3,7.6-5.9,10.2-7c0.4,1.8-0.6,6.1-1.6,9.7
				c20.7,6.5,35.4,14.1,35.4,14.1c-0.8-8-5-19.9-5-19.9c-4.9-14.1-12.4-23.5-22.8-30.9c-2.8,0.6-8,1.4-10.2,2.5
				c0.8-2.4,2.6-6.1,3.7-7.4c-15.1-8.5-32.8-9.8-47.8-2.3c-27.8,13.8-29.7,39.1-29.7,39.1c9.1-2.3,20.2-4.3,29.8-3.9
				C297.8,431.3,305,424.6,311.4,423.1z"/>
		</g>
	</g>
</g>
</svg>
