<svg width="145" height="226" viewBox="0 0 145 226" fill="none" xmlns="http://www.w3.org/2000/svg">
<rect x="45.6461" width="47.7692" height="138" rx="23.8846" fill="#2260FF"/>
<rect x="138" y="45.6461" width="46.7077" height="138" rx="23.3538" transform="rotate(90 138 45.6461)" fill="#2260FF"/>
<path d="M42.9181 44.5076C55.2096 46.2593 63.1825 55.2231 68.7944 64.8631C71.9003 70.2895 74.5195 76.0709 78.5892 80.6975C81.6097 84.1504 85.148 87.049 89.0328 89.618C91.6261 91.3181 94.3727 92.8295 97.8147 93.3187C95.9333 93.5925 94.1005 93.4982 92.3884 93.179C87.2918 92.1288 82.9262 89.8427 78.9413 87.085C74.9767 84.3143 71.7416 80.5669 69.2289 76.3865C66.7729 72.331 64.705 67.9268 62.2968 63.9111C57.4839 55.8578 51.6425 48.7321 42.9181 44.5076Z" fill="white"/>
<path d="M72.1007 64.2934C72.1007 64.2934 57.5208 51.4632 64.3092 34.2438C69.9048 20.0498 77.8758 17.3225 77.4767 6.03932C83.2516 11.1404 93.7347 24.413 88.8917 40.1234C84.1538 55.4938 72.1007 64.2934 72.1007 64.2934Z" fill="white"/>
<path d="M77.4767 6.03932C84.4748 14.5772 84.5776 24.9926 81.1327 35.3416C78.0663 45.0673 72.6403 53.6098 71.3816 63.7798C71.2313 62.8977 70.9367 61.7369 70.9166 60.8275C70.8438 59.2471 70.9651 57.6107 71.1891 56.0369C72.2868 48.5496 75.6089 41.3905 77.8702 34.3433C81.2834 24.1615 81.6617 15.8133 77.4767 6.03932Z" fill="#2260FF"/>
<path d="M67.5926 75.83C67.5926 75.83 52.8262 52.7869 36.0797 60.1279C22.2757 66.1791 20.0559 71.3004 5.5592 67.7444C10.8083 73.2352 22.5403 85.5249 40.3063 83.6619C56.1306 82.0018 67.5926 75.83 67.5926 75.83Z" fill="white"/>
<path d="M5.33312 67.956C12.8333 72.1432 21.6984 72.9604 29.8826 70.9977C31.3204 70.7258 33.0762 70.1172 34.483 69.7137C45.3925 65.8693 59.2082 67.3542 67.5815 75.8444C58.1029 71.3192 46.8381 70.7079 36.9384 73.8897C36.4602 74.0396 35.4811 74.3264 34.9964 74.4617C34.6166 74.5683 32.7637 75.0945 32.4227 75.18C31.2161 75.3948 29.9302 75.6636 28.7175 75.8217C27.9843 75.8588 26.2086 76.0518 25.4914 76.0535C24.9568 76.0414 23.8658 76.0208 23.3299 76.0074C16.6957 75.6861 9.6959 73.1048 5.33312 67.956Z" fill="#2260FF"/>
<path d="M63.3284 151.928H63.3764V182H61.8644V150.32H64.2884L83.7524 180.392H83.7284V150.32H85.2164V182H82.7924L63.3284 151.928Z" fill="#2260FF"/>
<path d="M62.7673 188.32V220H55.6153V201.352L55.9273 196.048L54.7032 202.12L49.3753 217.456H42.3433L37.0393 202.12L35.8393 196.048L36.1513 201.352V220H28.9753V188.32H39.0553L45.4393 209.464L45.8713 211.984L46.3033 209.464L52.6873 188.32H62.7673ZM68.492 188.32H88.724V194.608H75.644V201.064H88.604V207.16H75.644V213.712H88.724V220H68.492V188.32ZM94.2046 188.32H103.733C107.109 188.32 109.901 189 112.109 190.36C114.333 191.704 115.997 193.568 117.101 195.952C118.205 198.336 118.757 201.064 118.757 204.136C118.757 207.224 118.205 209.96 117.101 212.344C115.997 214.728 114.333 216.6 112.109 217.96C109.901 219.32 107.109 220 103.733 220H94.2046V188.32ZM101.357 194.68V213.64H103.085C104.893 213.64 106.389 213.232 107.573 212.416C108.757 211.584 109.645 210.456 110.237 209.032C110.845 207.592 111.149 205.976 111.149 204.184C111.149 202.376 110.853 200.76 110.261 199.336C109.685 197.896 108.797 196.76 107.597 195.928C106.397 195.096 104.893 194.68 103.085 194.68H101.357Z" fill="#2260FF"/>
</svg>
