<svg width="30" height="46" viewBox="0 0 30 46" fill="none" xmlns="http://www.w3.org/2000/svg">
<path d="M21.6775 21.39C21.6775 21.39 21.6775 21.39 21.6775 21.4952C21.6775 21.6004 21.6775 21.9337 21.6775 22.1793C21.7042 22.6759 21.7042 23.1736 21.6775 23.6702C21.6775 24.214 21.6775 24.7577 21.5354 25.319C21.3934 26.4591 21.1981 27.6519 21.0028 28.8271V29.248C21.0028 29.248 21.0028 29.248 21.0028 29.4059C21.0028 29.5638 21.1093 30.0549 21.2158 30.5109C21.3237 31.016 21.4968 31.5053 21.7307 31.9668C22.0088 32.4914 22.4034 32.9471 22.8849 33.2999L23.6661 33.8261L24.3408 34.2821C24.4503 34.1833 24.5692 34.0952 24.6959 34.019C25.492 33.5835 26.3978 33.3826 27.306 33.4402L27.7321 33.5454L27.963 33.6682H27.8209L27.3948 33.563C26.9513 33.5512 26.5085 33.6044 26.0809 33.7208C25.6487 33.8279 25.2356 33.9995 24.8557 34.2295L24.5184 34.4751L25.1931 34.9662C25.3884 35.1591 25.5837 35.317 25.7613 35.4749C25.9388 35.6327 26.4005 36.0712 26.6135 36.2642L26.9154 36.5624L26.5958 36.2817C26.3827 36.1063 26.0809 35.8257 25.708 35.545L25.1043 35.089L24.3941 34.5978C24.1633 34.44 23.8792 34.2997 23.6128 34.1243C23.3465 33.9489 23.0624 33.8261 22.7961 33.6507C22.2437 33.2983 21.7817 32.8239 21.4467 32.265C21.195 31.8139 20.9926 31.3376 20.843 30.8442C20.843 31.388 20.7187 31.9142 20.6832 32.4404C20.6477 32.9666 20.6832 33.5279 20.6832 34.0366C20.6909 34.5248 20.7384 35.0117 20.8252 35.4924L20.9317 36.1239C20.9745 36.3137 21.0278 36.5011 21.0915 36.6852C21.1731 36.9915 21.28 37.2907 21.4111 37.5797L21.7663 38.3164C21.7663 38.3164 21.6065 38.0533 21.3579 37.5973C21.207 37.3166 21.0822 37.0231 20.985 36.7202C20.985 36.5448 20.843 36.3519 20.7897 36.1589C20.7364 35.966 20.7009 35.738 20.6477 35.5275C20.5321 35.049 20.4549 34.5622 20.4168 34.0716C20.4168 33.5454 20.4168 32.9841 20.4168 32.4228C20.4168 31.8616 20.4168 31.2652 20.4168 30.6688C20.4168 30.0724 20.4168 29.8444 20.5234 29.4234V29.1779C20.5673 29.0756 20.6029 28.97 20.6299 28.8621C20.7364 27.6519 20.8607 26.4591 20.9317 25.3541C20.9317 25.1261 20.9317 24.898 20.9317 24.6875C19.9993 25.5002 19.2181 26.4678 18.6235 27.5466C18.4321 27.9314 18.289 28.3378 18.1974 28.7569C18.1086 29.213 18.0376 29.6865 17.9488 30.1777C17.8672 30.6792 17.7054 31.1647 17.4694 31.616L17.2918 31.8791L17.3096 31.9142C17.383 32.0235 17.4426 32.1413 17.4872 32.265C17.5599 32.4176 17.6193 32.576 17.6647 32.7386C17.7791 33.1394 17.8505 33.5509 17.8778 33.9664C17.9131 34.4276 17.9131 34.8908 17.8778 35.3521C17.7899 36.1918 17.7899 37.0382 17.8778 37.8779C17.9032 38.1587 17.9628 38.4355 18.0553 38.7023V39.0005C18.0553 39.0005 18.0553 38.8952 17.9311 38.7023C17.8305 38.4405 17.7532 38.1705 17.7002 37.8954C17.5554 37.0789 17.4841 36.2512 17.4872 35.4222V35.2995L17.132 35.8081C16.9545 36.0537 16.7592 36.3343 16.5639 36.6501C16.3686 36.9658 16.191 37.2991 15.9957 37.6499C15.8004 38.0007 15.6406 38.3515 15.5163 38.7023C15.3859 39.0097 15.279 39.3263 15.1967 39.6495C15.1358 39.8745 15.0883 40.103 15.0546 40.3335C15.0719 40.0961 15.1135 39.861 15.1789 39.6319C15.2563 39.3114 15.3511 38.9952 15.463 38.6848C15.5873 38.3339 15.7649 37.9831 15.9247 37.6148C16.0845 37.2464 16.2798 36.9132 16.4751 36.5974C16.6704 36.2817 16.848 35.9835 17.0255 35.738C17.1669 35.5132 17.321 35.2965 17.4872 35.089C17.4872 34.7382 17.4872 34.4049 17.4872 34.0892C17.4306 33.7123 17.3354 33.342 17.2031 32.9841C17.1488 32.8504 17.0834 32.7214 17.0078 32.5982C17.0078 32.493 16.9012 32.4053 16.8657 32.3176C16.8302 32.2299 16.6349 32.5982 16.5106 32.721C15.8536 33.3876 15.1434 33.8612 14.735 34.4751C14.5199 34.7144 14.346 34.987 14.2201 35.2819C14.1108 35.5103 14.0331 35.7522 13.9893 36.0011C13.9785 36.1588 13.9785 36.317 13.9893 36.4747C13.9893 36.3694 13.9893 36.194 13.9893 35.9835C14.0139 35.7311 14.0736 35.4832 14.1669 35.2468C14.2821 34.9273 14.4435 34.626 14.6463 34.3523C15.0902 33.7559 15.7649 33.2122 16.4218 32.5982C16.7104 32.2615 16.955 31.8902 17.1498 31.4932C17.3205 31.0724 17.4281 30.6292 17.4694 30.1777C17.4694 29.7041 17.4694 29.2305 17.6115 28.7394C17.7535 28.2482 17.7002 28.2658 17.7535 28.0202L17.3096 27.7045C17.2506 27.6459 17.1772 27.6036 17.0965 27.5817C17 27.5244 16.8895 27.4941 16.7769 27.494C16.4557 27.4978 16.1467 27.6162 15.9069 27.8273C15.5873 28.0553 15.2855 28.3535 14.9304 28.6166C14.8492 28.6906 14.7598 28.7553 14.664 28.8095H14.5575C14.5607 28.8445 14.5607 28.8798 14.5575 28.9148C14.644 29.0972 14.6981 29.293 14.7173 29.4936C14.7787 29.7769 14.7787 30.0698 14.7173 30.3531C14.6517 30.673 14.5505 30.9848 14.4154 31.2827C14.1653 31.8384 13.8683 32.3723 13.5277 32.8789L13.066 33.5805L13.5099 32.8789C13.8239 32.3598 14.1027 31.8207 14.3444 31.2652C14.4738 30.9667 14.5691 30.6549 14.6285 30.3355C14.6724 30.0624 14.6724 29.7842 14.6285 29.5111C14.6118 29.4028 14.582 29.2968 14.5397 29.1954C14.5397 29.1954 14.5397 29.0376 14.5397 28.9674V28.8797L13.9538 29.1077C13.6126 29.2245 13.2852 29.3774 12.9772 29.5638C12.7588 29.698 12.5858 29.8934 12.4801 30.1251C12.4642 30.2179 12.4642 30.3128 12.4801 30.4057C12.4605 30.3073 12.4605 30.206 12.4801 30.1075C12.5728 29.8594 12.7401 29.6452 12.9595 29.4936C13.2571 29.2769 13.5788 29.0945 13.9183 28.9499L14.4687 28.6692L14.7173 28.5113L14.9659 28.3009C15.2677 28.0202 15.5518 27.7045 15.8714 27.4238C16.1709 27.1279 16.5676 26.9475 16.99 26.9152C17.1718 26.9071 17.3533 26.937 17.5227 27.0029C17.6518 27.0456 17.7721 27.111 17.8778 27.1958V27.038C18.1883 26.2777 18.5939 25.5588 19.0852 24.898C19.4618 24.4207 19.8711 23.9694 20.3103 23.5474L20.8607 23.144C20.8795 22.8637 20.8795 22.5824 20.8607 22.3021C20.8607 22.0916 20.8607 21.8811 20.8607 21.6881L20.7542 21.1444C20.7308 20.864 20.6394 20.5933 20.4879 20.3551C20.2621 19.9656 19.9456 19.6349 19.5646 19.3904C19.0988 19.1969 18.5957 19.1071 18.0909 19.1272C18.0921 18.9637 18.1284 18.8023 18.1974 18.6537C18.3749 18.3029 19.2627 17.1101 23.2577 16.4962C24.7137 16.2682 23.8969 11.0762 22.441 11.2341L21.1093 11.4797C20.8373 11.6917 20.5389 11.8685 20.2215 12.0059C16.4396 13.5845 14.1136 15.5139 13.652 17.4083C13.4614 18.3948 13.6181 19.416 14.0958 20.3025L13.2968 20.7585C12.6418 19.7699 12.3941 18.5714 12.6044 17.4083C13.066 15.5139 15.392 13.5845 19.1739 12.0059C21.0915 11.199 19.2982 4.98972 17.8955 4.84939C17.554 3.59697 17.4935 2.286 17.718 1.00805C17.86 0.183655 14.8238 -0.342555 14.6818 0.481842C14.3644 2.23307 14.4555 4.03273 14.9481 5.74395L14.451 5.98952C13.9177 4.22058 13.8023 2.35438 14.1136 0.534465C14.1059 0.458647 14.1059 0.382255 14.1136 0.306438C13.8828 -0.360096 11.0064 0.148577 11.1129 0.990515C11.2727 2.2008 11.8764 5.16512 12.2848 7.1121C11.3433 5.20983 10.149 3.44018 8.73366 1.84999C8.14772 1.25362 5.92828 3.376 6.53197 3.97237C7.77056 5.46614 8.81997 7.10365 9.65695 8.8486C7.42966 10.5547 5.83745 12.9418 5.12928 15.6367C4.51792 18.2411 4.83787 20.9742 6.03481 23.372L5.5199 23.4948C4.45249 21.4288 4.0505 19.0896 4.36789 16.7914C4.68528 14.4931 5.70685 12.3458 7.29546 10.6377C7.63281 9.56775 3.40698 7.12964 2.57247 8.33992C1.73796 9.55021 0.796913 11.7252 1.32958 18.3906C1.59591 21.7408 2.11083 24.6525 2.14634 24.7752C2.17839 24.9676 2.23198 25.1559 2.30614 25.3365C1.87526 25.7916 1.54295 26.3288 1.32958 26.9152C1.33963 26.9909 1.33963 27.0675 1.32958 27.1432H1.50714C1.92871 27.2486 2.33458 27.4078 2.71452 27.6168C2.71452 27.6168 2.71452 27.494 2.80329 27.4414C2.84939 27.3607 2.91693 27.294 2.9986 27.2484C3.17244 27.1388 3.38062 27.0952 3.58454 27.1257L4.20598 27.2134H4.50783H4.80967C4.99238 27.1898 5.1774 27.1898 5.3601 27.2134C5.49228 27.2106 5.62223 27.2473 5.73296 27.3186C5.77368 27.3481 5.80961 27.3836 5.8395 27.4238C5.80695 27.3839 5.76397 27.3536 5.71521 27.3361C5.60888 27.2713 5.4848 27.2407 5.3601 27.2484C5.17819 27.268 4.99934 27.3093 4.82743 27.3712H4.52559C4.52559 27.3712 4.52559 27.4589 4.52559 27.494C4.51924 27.5406 4.51924 27.5878 4.52559 27.6343C4.58608 27.7601 4.67047 27.8733 4.77416 27.9676L5.16479 28.2482C5.42406 28.4021 5.69754 28.5313 5.98154 28.6341L6.37217 28.792L5.98154 28.6517C5.66805 28.5925 5.35944 28.5104 5.05825 28.4061C4.9181 28.3269 4.78712 28.2328 4.66763 28.1255C4.5578 28.0279 4.46219 27.9157 4.38354 27.7922C4.3306 27.706 4.29446 27.6108 4.27701 27.5115H4.06394H3.44249C3.28422 27.4965 3.12596 27.5403 2.9986 27.6343C2.95343 27.666 2.91684 27.7082 2.89207 27.7571C2.88803 27.7979 2.88803 27.8391 2.89207 27.8799C2.90038 27.9145 2.90038 27.9505 2.89207 27.9851C2.99231 28.047 3.08217 28.1239 3.1584 28.2132L3.65556 28.7394C3.80558 28.9086 3.9789 29.0562 4.17047 29.1779C4.36828 29.2767 4.57675 29.3532 4.79192 29.4059C5.21805 29.4059 5.66194 29.5111 6.01705 29.6164L6.46094 29.8269L6.76279 30.0724L6.92259 30.2654L6.76279 30.09C6.67151 30.0076 6.5701 29.9369 6.46094 29.8795C6.31398 29.8046 6.15918 29.7458 5.9993 29.7041C5.66194 29.7041 5.23581 29.7041 4.77416 29.5813H4.52559C4.51697 29.6336 4.51697 29.6869 4.52559 29.7392C4.52132 29.8093 4.52132 29.8796 4.52559 29.9497C4.56906 30.1292 4.64097 30.3009 4.73865 30.4583C4.73865 30.5986 4.91621 30.739 5.00499 30.8793L5.37785 31.0021L5.85725 31.1775L6.37217 31.423C6.54576 31.5023 6.71209 31.5962 6.86932 31.7037L7.2777 32.0019L6.86932 31.7212L6.35441 31.4581C6.18971 31.3677 6.01744 31.2914 5.8395 31.2301L5.3601 31.0547H5.07601C5.3382 31.3844 5.56995 31.7366 5.76848 32.1071C5.82814 32.231 5.8757 32.3602 5.91052 32.493V32.6509V32.5105C5.86369 32.3767 5.80424 32.2475 5.73296 32.1247C5.50873 31.7707 5.24683 31.4414 4.95172 31.1424L4.52559 30.5986C4.41893 30.4265 4.32972 30.2444 4.25925 30.0549C4.25925 29.9672 4.25925 29.8795 4.17047 29.8093C4.0817 29.7392 4.17047 29.669 4.17047 29.6164V29.5287H4.01067C3.77925 29.4194 3.56894 29.271 3.38923 29.0902L2.83881 28.4061C2.67118 28.2617 2.48634 28.138 2.28838 28.0378C1.93662 27.8786 1.56713 27.7609 1.18754 27.6869H0.974469C0.934485 27.8011 0.904777 27.9185 0.885691 28.0378L1.91551 29.1779H2.05756V29.3007C2.20294 29.4443 2.33932 29.5966 2.46594 29.7567C2.66125 29.9672 2.8388 30.1952 3.01636 30.4232C3.19392 30.6513 3.35372 30.8793 3.49576 31.0898C3.63781 31.3003 3.74434 31.5283 3.83312 31.7388C3.88208 31.8349 3.92363 31.9346 3.95741 32.037C4.0031 32.1248 4.03313 32.2197 4.04618 32.3176C4.11003 32.4628 4.15191 32.6164 4.17047 32.7737L4.02843 32.3351L3.9219 32.0545L3.79761 31.9142C3.6852 31.7027 3.56071 31.4977 3.42474 31.3003L2.92758 30.6863C2.76442 30.4809 2.5864 30.2875 2.39492 30.1075C2.48711 30.3442 2.54682 30.5919 2.57247 30.8442C2.6074 31.1581 2.57101 31.4757 2.46594 31.7738C2.46594 31.9317 2.34165 32.072 2.28838 32.2124C2.23511 32.3527 2.16409 32.493 2.11083 32.6158C2.05756 32.7386 2.11083 32.8964 1.98654 33.0192C1.94288 33.1396 1.90729 33.2626 1.88 33.3876C1.88 33.598 1.77347 33.791 1.73796 33.9313C1.70245 34.0716 1.73796 34.1418 1.73796 34.1418C1.73796 34.1418 1.73796 34.1418 1.73796 33.9313C1.72735 33.7444 1.72735 33.557 1.73796 33.37C1.73796 33.2648 1.73796 33.1245 1.82674 33.0017L1.93327 32.6158H1.68469C1.46566 32.6412 1.25083 32.6942 1.04549 32.7737C0.847829 32.8527 0.662508 32.959 0.495067 33.0894C0.435877 33.1374 0.387497 33.1972 0.353023 33.2648C0.386381 33.2011 0.42818 33.1421 0.477313 33.0894C0.644837 32.941 0.837057 32.8223 1.04549 32.7386C1.24551 32.641 1.46236 32.5814 1.68469 32.5632H1.95103C1.95103 32.4404 1.95103 32.3176 2.07531 32.1773L2.23512 31.7563C2.30523 31.4681 2.30523 31.1675 2.23512 30.8793C2.19307 30.63 2.11535 30.3878 2.00429 30.1601C1.93183 29.9858 1.84882 29.8159 1.75571 29.6515C1.69979 29.614 1.65158 29.5664 1.61367 29.5111L0.761402 28.4061C-3.64198 45.9465 18.6058 46.1394 26.6313 45.6132C27.4256 45.5429 28.1727 45.2105 28.7525 44.6696C29.3323 44.1286 29.7109 43.4107 29.8273 42.6313C29.8534 42.363 29.8534 42.0928 29.8273 41.8245V41.0352C29.8273 40.509 29.8273 39.9827 29.7385 39.439C29.7385 38.4216 29.5965 37.3868 29.5077 36.3694C29.4189 35.3521 29.2946 34.44 29.1526 33.4753C29.0105 32.5105 28.8507 31.7212 28.6554 30.8618C28.4704 30.0888 28.2392 29.3274 27.963 28.5815C27.706 27.9098 27.3849 27.2637 27.0042 26.6521C26.7034 26.0794 26.3529 25.5336 25.9566 25.0208C25.5868 24.5541 25.1833 24.1144 24.7492 23.7053C24.3263 23.3075 23.8817 22.9327 23.4175 22.5827L22.0148 21.6004L21.6775 21.39Z" fill="#2260FF"/>
</svg>
