<svg width="34" height="41" viewBox="0 0 34 41" fill="none" xmlns="http://www.w3.org/2000/svg">
<path d="M30.54 29.9298C30.54 29.6023 30.3742 29.2747 30.2913 28.9472C30.2084 28.6196 30.1877 28.7834 30.1462 28.681L29.8768 28.9267C29.6282 29.1928 29.3588 29.4385 29.1101 29.6637L28.7578 30.0117L28.4055 30.2778L26.8513 31.4652L28.1361 30.0322L28.4262 29.6841C28.4262 29.5613 28.6127 29.4385 28.6956 29.2952C28.7785 29.1519 29.0894 28.7424 29.2966 28.4558C29.5207 28.1645 29.7216 27.8566 29.8976 27.5346L30.4571 26.552C30.4571 26.552 30.4571 26.3677 30.6021 26.2653C32.4793 21.1914 33.481 15.8422 33.5655 10.4406C33.5655 4.66757 30.4364 0 24.5925 0C22.19 0.0221299 19.8161 0.516221 17.6088 1.4535L18.0233 1.82199L18.8936 2.72275C19.163 3.02983 19.4324 3.29596 19.7018 3.5621L20.3443 4.38097L21.6498 6.08013L20.0749 4.6471L19.3081 3.97153L18.3756 3.29596L17.4016 2.57945C17.0618 2.34194 16.709 2.12324 16.3447 1.92435L15.2671 1.3102L14.1895 0.818872L13.5471 0.532266C12.1891 0.207421 10.7995 0.0289575 9.40251 0C3.55862 0 0.429443 4.66757 0.429443 10.4406C0.499265 15.631 1.45199 20.7729 3.24777 25.6512C3.38594 25.9617 3.54518 26.2626 3.7244 26.552C3.91091 26.8795 4.09742 27.2071 4.2632 27.5346C4.44673 27.8521 4.64734 28.1596 4.86417 28.4558L5.46514 29.2952C5.46514 29.4385 5.65164 29.5613 5.73454 29.6841L6.04538 30.0322L7.30948 31.4652L5.75526 30.2778L5.40297 30.0117L5.17501 29.6637L4.40826 28.9267C4.28392 28.8039 4.13886 28.681 4.01452 28.5377C3.89019 28.3944 3.89019 28.8039 3.82802 28.9472C3.76585 29.0905 3.64151 29.6023 3.57934 29.9298C3.42233 30.5349 3.31149 31.1508 3.24777 31.7723C3.12539 32.8334 3.12539 33.9048 3.24777 34.9659C3.31727 35.7932 3.44888 36.6144 3.64151 37.4225C3.69911 37.6916 3.78957 37.9528 3.91091 38.2004C3.91091 38.4256 4.07669 38.6099 4.13886 38.7532C4.20103 38.8965 4.34609 39.224 4.34609 39.224C4.53861 39.6087 4.84126 39.929 5.21646 40.1452C5.73036 40.3907 6.31828 40.4386 6.86595 40.2797C7.41363 40.1208 7.88194 39.7664 8.17985 39.2854L8.4078 38.8555C8.55287 38.5894 8.78082 38.0776 9.05022 37.6272L9.98275 36.1532C10.1693 35.8666 10.335 35.5596 10.563 35.2729C10.7654 34.9597 10.9868 34.6589 11.2261 34.3722C11.4513 34.0592 11.6934 33.7585 11.9514 33.4714C12.0965 33.3281 12.2001 33.1644 12.3245 33.0211L12.7389 32.6116C13.0083 32.325 13.2984 32.0998 13.5678 31.8337C13.8372 31.5676 14.1066 31.3628 14.4175 31.1991C14.8788 30.8704 15.3892 30.6149 15.9303 30.4416H16.096H16.2411C16.2411 30.4416 16.4276 30.4416 16.5105 30.4416C16.5934 30.4416 16.6763 30.4416 16.7592 30.4416H16.9664H17.5466C17.7539 30.4416 17.6917 30.4416 17.671 30.4416H17.8161H17.9818C18.5229 30.6149 19.0333 30.8704 19.4946 31.1991C19.8055 31.3628 20.0334 31.629 20.3443 31.8337C20.6551 32.0384 20.9038 32.325 21.1732 32.6116L21.5876 33.0211C21.712 33.1644 21.8156 33.3281 21.9607 33.4714C22.2187 33.7585 22.4608 34.0592 22.686 34.3722C22.9346 34.6588 23.1211 34.9659 23.3491 35.2729C23.577 35.58 23.7428 35.8666 23.9293 36.1532C24.1158 36.4398 24.5925 37.2587 24.8826 37.7091C25.1727 38.1595 25.3385 38.5689 25.4836 38.8146L25.898 39.2854L26.0638 39.5311C26.2831 39.8739 26.6004 40.1446 26.9756 40.309C27.4939 40.5359 28.0809 40.5561 28.6139 40.3653C29.1468 40.1745 29.5845 39.7876 29.8354 39.2854C29.8354 39.2854 29.8354 39.1012 30.0426 38.7736C30.2499 38.4461 30.3742 37.9548 30.54 37.3201C30.7349 36.5402 30.8666 35.7461 30.9337 34.9454C31.0561 33.8843 31.0561 32.8129 30.9337 31.7518C30.8486 31.1356 30.717 30.5266 30.54 29.9298Z" fill="#2260FF"/>
</svg>
